<?xml version="1.0" standalone="no"?>
<!DOCTYPE svg PUBLIC "-//W3C//DTD SVG 20010904//EN"
 "http://www.w3.org/TR/2001/REC-SVG-20010904/DTD/svg10.dtd">
<svg version="1.0" xmlns="http://www.w3.org/2000/svg"
 width="1290.000000pt" height="1278.000000pt" viewBox="0 0 1290.000000 1278.000000"
 preserveAspectRatio="xMidYMid meet">

<g transform="translate(0.000000,1278.000000) scale(0.100000,-0.100000)"
fill="#000000" stroke="none">
<path d="M0 12690 c0 -50 3 -90 8 -90 4 0 23 12 42 28 48 38 140 86 140 73 0
-6 -5 -11 -10 -11 -6 0 -20 -9 -32 -20 -12 -11 -30 -20 -39 -20 -10 0 -26 -10
-36 -22 -10 -13 -30 -29 -45 -37 -23 -12 -28 -21 -28 -53 0 -21 5 -38 10 -38
6 0 10 10 10 23 0 26 45 75 57 63 4 -4 0 -12 -10 -18 -10 -5 -17 -19 -16 -31
2 -22 -3 -39 -27 -92 -14 -33 1 -51 18 -21 5 9 15 16 23 16 18 0 33 -52 17
-58 -14 -4 -16 -42 -3 -42 5 0 27 18 49 40 22 22 46 40 53 40 19 1 50 26 42
34 -4 3 4 5 18 4 18 -2 24 2 24 16 0 11 6 21 13 24 6 2 12 -1 12 -7 0 -6 7
-11 16 -11 23 0 113 31 120 41 3 5 20 9 37 9 18 0 46 4 63 9 32 9 66 -1 46
-13 -10 -6 -64 -19 -137 -33 -16 -3 -55 -25 -85 -48 -30 -23 -62 -46 -72 -51
-9 -5 -31 -22 -50 -39 -18 -16 -57 -50 -86 -73 -28 -24 -52 -50 -52 -57 0 -16
44 -45 69 -45 11 0 23 -4 26 -10 3 -5 17 -10 31 -10 13 0 24 -4 24 -10 0 -5
10 -10 22 -10 12 0 54 -9 92 -19 39 -11 90 -25 114 -31 23 -6 40 -15 38 -19
-8 -13 46 -34 81 -32 36 3 115 -19 164 -45 19 -10 54 -18 79 -18 52 -1 61 -17
31 -56 -49 -63 -130 -181 -136 -198 -10 -33 -33 -34 -40 -2 -3 16 -16 35 -28
43 -21 13 -298 107 -527 178 -58 18 -111 34 -118 37 -9 3 -12 -22 -12 -104 l0
-109 27 -11 c120 -50 542 -174 590 -174 30 0 29 -12 -4 -48 -16 -16 -52 -64
-82 -108 -30 -43 -56 -81 -58 -83 -2 -3 -13 5 -26 17 -13 12 -29 22 -35 22 -7
0 -20 4 -30 10 -9 5 -44 19 -77 31 -89 30 -297 99 -301 99 -2 0 -4 -74 -4
-164 0 -188 -3 -180 103 -264 42 -33 85 -57 132 -72 39 -12 79 -26 90 -31 11
-4 58 -13 105 -19 88 -11 171 0 275 36 23 8 46 14 53 14 11 0 52 -78 52 -100
0 -5 9 -32 21 -58 40 -90 59 -145 59 -170 0 -11 -8 -13 -35 -8 -23 5 -59 0
-107 -15 -62 -18 -99 -22 -238 -23 -191 -1 -277 14 -405 70 -44 19 -86 38 -92
41 -10 4 -13 -712 -13 -3563 0 -1962 3 -3565 6 -3561 4 3 23 42 43 85 99 213
279 411 501 550 116 73 110 69 160 91 132 58 261 81 448 81 132 0 152 -2 152
-16 0 -45 -68 -396 -79 -407 -4 -4 -28 -1 -52 7 -49 18 -199 22 -199 6 0 -5 8
-10 17 -10 28 0 2 -16 -44 -27 -47 -12 -59 -7 -40 15 19 24 -38 9 -135 -35
-178 -80 -316 -210 -412 -384 -40 -73 -43 -84 -21 -75 12 4 15 -3 15 -32 -1
-40 -15 -114 -29 -147 -19 -44 -31 -119 -31 -188 0 -85 7 -117 26 -117 18 0
105 52 179 106 123 91 191 139 245 175 30 20 68 49 83 64 16 16 35 30 44 31 8
2 33 16 54 33 21 17 42 31 47 31 5 0 17 9 28 21 10 12 35 29 55 39 20 11 57
35 83 54 25 20 52 36 59 36 8 0 24 -38 40 -92 15 -51 37 -121 48 -155 11 -34
18 -67 14 -72 -3 -6 -27 -11 -53 -11 -41 0 -60 -8 -143 -63 -98 -64 -167 -117
-152 -117 4 -1 -15 -11 -43 -24 -74 -35 -258 -150 -346 -217 -43 -33 -82 -59
-88 -59 -5 0 -10 -3 -10 -8 0 -4 -16 -16 -35 -26 -19 -11 -40 -25 -46 -33 -9
-10 -5 -12 20 -7 30 6 32 5 26 -19 -6 -21 2 -37 42 -86 26 -34 53 -61 60 -61
7 0 52 26 100 58 48 32 122 80 163 106 41 26 122 81 180 122 58 41 122 84 144
95 48 26 171 116 221 163 44 42 65 46 65 12 0 -13 15 -66 33 -117 18 -52 34
-115 35 -142 3 -46 2 -47 -27 -47 -16 0 -33 5 -36 10 -4 6 -21 -1 -43 -18 -20
-15 -60 -42 -88 -60 -27 -17 -61 -43 -75 -58 -31 -33 -102 -66 -126 -57 -10 3
-26 13 -37 22 -18 15 -18 15 -12 -6 8 -25 3 -27 -48 -23 -18 1 -26 -2 -22 -9
11 -16 -5 -13 -26 5 -16 16 -18 15 -24 -1 -4 -10 -2 -26 5 -36 7 -12 7 -19 1
-19 -5 0 -10 4 -10 9 0 6 -8 9 -17 9 -10 -1 -28 2 -41 6 -16 5 -24 3 -28 -8
-8 -21 -44 -21 -44 0 0 13 -3 14 -13 5 -8 -6 -12 -23 -9 -40 4 -26 1 -29 -16
-24 -12 3 -23 12 -25 22 -4 13 -5 13 -6 1 0 -8 -10 -21 -20 -27 -17 -11 -21
-9 -26 7 -7 23 -21 26 -29 8 -3 -7 -3 -2 1 12 5 20 3 23 -8 14 -8 -6 -34 -19
-58 -28 -25 -10 -58 -26 -73 -38 l-29 -20 -39 44 c-22 23 -62 73 -88 110 -51
74 -106 113 -121 89 -5 -8 -8 -27 -6 -42 2 -16 -2 -29 -9 -32 -18 -7 -58 21
-53 36 5 15 -22 36 -46 37 -24 0 -51 -26 -37 -35 8 -5 7 -11 -1 -21 -16 -20
-29 -17 -29 6 0 10 -9 24 -20 30 -20 11 -20 8 -20 -1345 l0 -1355 840 0 840 0
0 28 c0 15 4 32 9 38 5 5 12 18 15 29 3 11 3 -6 0 -38 l-5 -57 89 0 89 0 12
42 c7 24 17 50 22 58 19 32 21 41 8 56 -8 10 -21 13 -36 9 -27 -6 -68 28 -59
51 3 8 -1 17 -9 21 -11 3 -13 12 -9 27 6 18 5 19 -10 7 -9 -7 -16 -18 -16 -23
0 -5 -9 -21 -20 -35 -11 -14 -20 -21 -20 -16 0 15 24 63 33 63 4 0 7 7 7 16 0
14 32 68 50 84 3 3 12 18 20 34 25 49 131 150 214 204 151 98 297 142 473 142
90 0 239 -26 279 -48 10 -6 4 -28 -31 -102 -24 -52 -44 -101 -45 -107 0 -7 -5
-13 -10 -13 -6 0 -9 -3 -9 -7 5 -31 -4 -32 -48 -6 -43 25 -59 28 -159 31 -196
7 -325 -43 -452 -176 -73 -76 -78 -85 -86 -157 -3 -22 -12 -66 -20 -97 l-14
-58 102 0 c99 0 152 10 231 45 49 21 207 81 250 95 22 7 53 19 69 27 43 22 61
0 58 -73 -1 -31 0 -65 3 -75 6 -18 148 -19 5126 -19 l5119 0 0 295 c0 162 -3
295 -7 295 -5 -1 -28 -11 -53 -23 -52 -26 -111 -99 -139 -172 -18 -48 -41 -72
-41 -42 0 30 -62 134 -106 180 -50 50 -129 101 -176 112 -39 10 -35 20 15 39
24 9 59 27 77 41 l33 24 -33 18 c-207 115 -281 180 -442 394 -86 115 -179 380
-179 511 0 26 -4 50 -9 53 -5 3 -7 -8 -5 -25 6 -43 -28 -59 -208 -100 -77 -17
-258 -23 -338 -11 -132 21 -329 90 -360 128 -7 7 -16 13 -22 13 -19 0 -107 62
-107 75 0 7 -5 15 -11 17 -6 2 -8 14 -4 30 6 24 10 26 38 21 25 -5 29 -4 24
10 -4 10 -2 17 3 17 12 0 13 37 1 44 -5 3 -12 -4 -15 -17 -6 -19 -9 -15 -22
27 -8 26 -12 56 -8 65 12 26 12 51 0 51 -8 0 -8 2 0 8 18 12 24 52 8 52 -8 0
-11 6 -7 17 5 12 3 14 -7 8 -9 -6 -11 -4 -6 4 11 17 -74 93 -90 80 -7 -6 -17
-2 -30 12 -14 16 -15 23 -6 26 14 5 17 53 2 53 -5 0 -10 -7 -10 -16 0 -8 -4
-12 -10 -9 -14 8 -13 45 1 45 8 0 8 5 -1 15 -7 8 -14 30 -15 48 -2 40 -42 120
-58 114 -19 -6 -47 26 -47 55 0 36 -18 37 -22 1 -4 -34 -25 -42 -30 -11 -3 18
-7 14 -17 -22 -8 -25 -15 -40 -16 -35 -2 6 -11 36 -20 68 l-17 59 -19 -29
c-10 -15 -19 -33 -19 -39 0 -7 -11 -15 -25 -18 -14 -4 -25 -11 -25 -16 0 -6
-5 -10 -11 -10 -5 0 -8 4 -5 9 3 5 1 23 -5 40 -10 29 -15 32 -48 29 -23 -2
-35 1 -34 8 3 17 -48 28 -58 13 -5 -9 -16 -2 -37 21 -29 31 -52 34 -52 4 0 -8
-5 -14 -11 -14 -11 0 -3 58 10 73 5 4 46 9 94 11 47 2 90 7 96 11 13 7 14 72
2 133 -5 23 -5 45 0 48 5 3 9 10 9 16 0 7 -25 9 -72 5 -79 -5 -118 4 -118 27
0 25 72 217 88 232 10 11 32 14 80 12 75 -3 61 -18 135 142 87 189 180 307
347 440 128 101 209 146 380 210 220 82 329 95 541 65 114 -16 150 -25 316
-80 109 -36 173 -70 289 -156 50 -37 53 -41 42 -64 -6 -14 -17 -25 -24 -25 -7
0 -34 -23 -61 -51 -126 -134 -205 -209 -218 -209 -8 0 -26 17 -39 38 -27 44
-99 94 -178 123 -193 74 -185 72 -328 73 -106 1 -148 -3 -194 -18 -103 -32
-220 -101 -231 -137 -3 -9 -21 -27 -40 -40 -19 -13 -37 -31 -40 -39 -3 -8 -45
-58 -95 -110 -126 -133 -138 -171 -60 -184 23 -4 237 -4 474 -1 381 6 434 5
445 -9 11 -13 5 -42 -32 -168 -25 -84 -49 -152 -54 -151 -4 1 -28 9 -52 18
-77 28 -982 71 -967 46 4 -6 14 -11 22 -11 17 0 19 -37 3 -42 -9 -3 -9 -9 0
-25 16 -30 14 -83 -4 -103 -33 -36 1 -43 263 -51 136 -4 332 -13 436 -19 140
-9 199 -9 226 -1 79 24 82 18 46 -91 -14 -40 -30 -101 -36 -135 -16 -80 -26
-88 -76 -63 -66 32 -543 66 -611 42 -20 -7 -61 -15 -90 -19 -29 -3 -53 -11
-53 -17 0 -6 16 -24 35 -39 19 -15 35 -33 35 -39 0 -14 144 -161 185 -190 18
-11 37 -34 42 -49 15 -39 78 -69 228 -110 33 -9 99 -14 190 -13 159 1 264 24
347 75 26 16 54 26 63 23 10 -4 15 0 14 12 0 12 -42 50 -115 103 -63 46 -114
87 -112 91 3 8 177 140 185 140 9 0 69 -36 104 -62 41 -31 42 -31 78 41 15 30
20 53 16 72 -6 25 -3 29 14 29 33 0 25 15 -19 35 -22 10 -45 24 -51 32 -6 7
-22 13 -35 13 -48 0 -19 36 98 126 96 73 113 74 185 11 21 -19 22 -19 135 56
62 41 129 82 148 90 156 67 185 77 290 97 25 5 60 12 78 16 l32 6 0 1845 c0
1744 -1 1845 -18 1863 -40 43 -101 250 -74 250 7 0 15 -12 18 -27 9 -36 51
-120 64 -128 7 -4 10 44 10 142 l0 148 -50 22 c-58 25 -59 32 -28 121 21 61
24 63 50 58 l28 -5 0 2454 c0 1962 -2 2455 -12 2455 -9 0 -8 3 2 10 8 5 11 12
8 15 -15 15 -29 -8 -23 -36 4 -18 3 -29 -4 -29 -6 0 -12 21 -12 48 l-2 47 -10
-37 c-23 -84 -38 -10 -16 79 14 53 9 59 -63 69 -27 4 -48 10 -48 14 0 4 21 42
47 85 l46 77 44 -5 43 -5 0 149 0 149 -1346 0 c-1192 0 -1345 -2 -1340 -15 3
-8 1 -15 -4 -15 -5 0 -17 -9 -27 -19 -10 -10 -27 -20 -38 -22 -10 -2 -22 -14
-25 -26 -7 -29 -190 -146 -261 -167 -66 -20 -80 -20 -73 -1 4 8 14 15 23 15
25 0 101 39 107 55 3 7 12 11 19 9 7 -3 18 3 24 15 6 11 20 22 30 26 14 4 17
12 13 28 -5 20 -4 20 11 8 15 -12 17 -11 17 3 0 12 -9 16 -35 16 -28 0 -38 5
-47 25 -14 31 -22 31 -35 3 -9 -22 -11 -21 -28 15 -15 33 -19 36 -30 21 -8
-12 -14 -14 -19 -6 -4 7 -4 17 -1 22 10 16 -25 11 -106 -14 -41 -14 -95 -27
-120 -29 -64 -7 -187 9 -255 32 l-58 21 -4141 -1 c-2277 -1 -4131 -4 -4120 -8
43 -15 172 -79 210 -105 111 -75 237 -211 271 -291 20 -49 18 -54 -23 -71 -62
-26 -144 -64 -204 -95 -31 -16 -63 -29 -72 -29 -9 0 -23 24 -37 61 -13 33 -33
67 -45 75 -13 8 -25 24 -28 34 -4 17 -1 19 19 14 13 -3 32 -3 41 0 15 6 15 8
3 16 -8 5 -11 12 -7 16 3 4 13 1 21 -5 12 -10 19 -6 39 26 13 21 26 46 30 56
7 19 53 44 63 34 4 -4 1 -20 -6 -36 -6 -17 -10 -36 -7 -43 3 -7 6 -3 6 10 1
12 8 23 16 23 8 1 20 3 25 4 6 1 15 3 20 4 6 0 10 5 10 11 0 5 -3 9 -7 9 -28
-4 -42 2 -36 17 4 10 0 20 -10 26 -10 5 -17 14 -17 21 -1 11 -34 38 -119 97
-36 24 -40 26 -74 28 -10 1 -15 7 -12 12 4 6 -6 10 -22 11 -15 0 -22 3 -14 6
9 4 -2 13 -29 25 -32 15 -45 17 -50 8 -6 -9 -10 -9 -16 2 -21 34 -70 38 -525
38 l-449 0 0 -90z m317 64 c-3 -3 -12 -4 -19 -1 -8 3 -5 6 6 6 11 1 17 -2 13
-5z m-87 -34 c0 -5 -7 -10 -16 -10 -8 0 -12 5 -9 10 3 6 10 10 16 10 5 0 9 -4
9 -10z m760 -6 c0 -10 -23 -49 -32 -55 -5 -3 -10 -20 -10 -37 -1 -30 -18 -47
-18 -19 0 6 -3 21 -5 32 -7 25 29 85 50 85 8 0 15 -3 15 -6z m-105 -14 c3 -5
-1 -10 -10 -10 -9 0 -13 5 -10 10 3 6 8 10 10 10 2 0 7 -4 10 -10z m275 -84
c0 -11 -19 -15 -25 -6 -3 5 1 10 9 10 9 0 16 -2 16 -4z m-248 -68 c-7 -7 -12
-8 -12 -2 0 14 12 26 19 19 2 -3 -1 -11 -7 -17z m-99 -10 c32 -6 60 -8 63 -5
3 3 24 -13 47 -35 33 -31 39 -41 27 -48 -10 -6 -22 -4 -35 6 -11 8 -31 19 -45
24 -14 6 -33 15 -43 21 -10 5 -32 7 -49 4 -20 -5 -33 -3 -38 5 -8 13 -26 17
-104 19 -56 1 -55 11 1 21 42 8 88 5 176 -12z m407 -28 c0 -5 -4 -10 -10 -10
-5 0 -10 5 -10 10 0 6 5 10 10 10 6 0 10 -4 10 -10z m-1110 -20 c0 -5 -2 -10
-4 -10 -3 0 -8 5 -11 10 -3 6 -1 10 4 10 6 0 11 -4 11 -10z m65 -39 c3 -5 1
-12 -5 -16 -5 -3 -10 1 -10 9 0 18 6 21 15 7z m835 -1 c0 -5 -5 -10 -11 -10
-5 0 -7 5 -4 10 3 6 8 10 11 10 2 0 4 -4 4 -10z m110 -20 c0 -5 -4 -10 -9 -10
-6 0 -13 5 -16 10 -3 6 1 10 9 10 9 0 16 -4 16 -10z m-680 -20 c0 -5 -7 -7
-15 -4 -8 4 -15 8 -15 10 0 2 7 4 15 4 8 0 15 -4 15 -10z m640 -10 c0 -5 -4
-10 -9 -10 -6 0 -13 5 -16 10 -3 6 1 10 9 10 9 0 16 -4 16 -10z m-694 -9 c5
-5 18 -11 29 -14 16 -4 14 -5 -6 -6 -15 0 -32 6 -39 14 -13 16 0 21 16 6z m29
-51 c12 0 15 -5 10 -17 -4 -10 -10 -27 -12 -38 -5 -23 -73 -75 -98 -75 -22 0
-14 22 9 26 9 1 29 15 43 30 29 31 22 57 -16 62 -11 2 -21 8 -21 13 0 6 -4 7
-10 4 -14 -9 -13 8 2 23 9 9 19 7 43 -8 18 -11 40 -20 50 -20z m5740 -12 c25
-11 35 -50 16 -62 -4 -3 -11 -25 -15 -48 -4 -24 -11 -59 -16 -79 l-10 -37
-123 -4 c-111 -3 -128 -7 -187 -34 -73 -35 -140 -98 -170 -160 -27 -54 -52
-188 -46 -239 5 -42 15 -75 23 -75 10 0 49 25 103 66 32 24 120 76 195 114
162 84 168 83 180 -26 8 -74 -4 -99 -42 -89 -15 3 -48 -7 -100 -33 -43 -21
-123 -56 -178 -77 -55 -21 -111 -45 -125 -54 -30 -20 -171 -22 -178 -3 -2 7
-14 12 -26 12 -62 0 -70 223 -15 400 32 99 64 151 148 239 85 89 226 166 356
194 43 10 185 6 210 -5z m-5812 -18 c20 -24 18 -24 -17 -7 -14 8 -23 17 -19
20 10 11 17 8 36 -13z m164 4 c-3 -3 -12 -4 -19 -1 -8 3 -5 6 6 6 11 1 17 -2
13 -5z m12303 -203 c0 -14 -68 -11 -83 4 -23 22 -38 11 -85 -60 -23 -36 -47
-65 -52 -65 -12 0 -13 13 -1 26 5 5 21 32 36 59 44 81 53 86 125 63 33 -11 60
-23 60 -27z m-8310 -327 c14 -3 50 -10 80 -15 30 -6 69 -13 85 -16 72 -12 73
-51 3 -115 -57 -53 -78 -58 -123 -28 -16 11 -38 20 -49 20 -10 0 -34 14 -53
30 -36 32 -73 39 -92 16 -7 -8 -48 -26 -93 -41 -77 -26 -94 -27 -156 -9 l-24
7 5 -86 c6 -95 11 -109 35 -105 25 3 74 -11 68 -21 -6 -10 9 -8 122 16 101 20
117 13 88 -42 -11 -19 -27 -42 -36 -50 -22 -20 -165 -35 -335 -36 -132 0 -155
-9 -155 -59 0 -40 17 -49 80 -40 35 5 57 4 62 -3 4 -8 11 -7 20 0 7 6 29 13
48 16 19 3 67 13 105 22 119 27 120 28 134 12 8 -10 10 -31 5 -66 -8 -59 -14
-62 -109 -59 -72 2 -296 -27 -325 -42 -11 -6 -20 -21 -20 -35 0 -13 -8 -28
-17 -33 -16 -9 -15 -12 2 -38 17 -27 17 -28 -4 -45 -26 -21 -27 -29 -2 -29 11
0 21 9 25 22 5 21 6 22 18 5 19 -26 69 -32 85 -11 11 15 19 16 69 5 79 -15
163 -14 198 4 15 8 35 15 43 15 9 0 48 16 88 35 68 34 73 35 106 21 49 -21 89
-55 89 -76 0 -43 -153 -110 -249 -110 -34 0 -54 -6 -69 -20 -48 -45 -151 -55
-206 -21 -28 18 -92 38 -136 44 -12 2 -14 -8 -12 -40 3 -53 -13 -56 -54 -11
-30 34 -84 114 -84 125 0 3 -16 21 -36 38 -29 26 -37 42 -41 78 -5 42 -4 46
18 49 31 4 31 32 1 36 -12 2 -42 -4 -66 -13 -23 -9 -60 -15 -82 -13 -33 3 -39
6 -39 27 0 17 11 29 45 47 29 16 48 20 54 14 17 -17 65 -11 86 10 11 11 16 20
10 20 -15 0 -12 38 3 43 6 2 22 -7 34 -20 36 -38 56 -26 32 18 -6 12 -17 18
-25 15 -8 -3 -14 -1 -14 4 0 6 -7 10 -15 10 -8 0 -15 6 -15 13 -1 7 -6 5 -14
-6 -13 -17 -16 -17 -55 4 -49 25 -52 43 -10 58 47 16 56 14 64 -16 4 -18 9
-23 14 -15 8 13 41 6 52 -11 11 -16 29 2 29 29 0 16 -6 24 -17 25 -41 2 57 21
119 23 63 1 112 16 55 16 -14 0 -29 5 -33 11 -4 6 -20 8 -40 5 -28 -6 -33 -4
-31 13 0 11 5 17 9 15 19 -12 6 26 -14 40 -12 9 -17 17 -10 17 6 1 17 3 22 4
6 1 12 3 15 4 3 0 1 10 -5 22 -10 17 -8 21 10 26 13 3 19 11 16 19 -9 23 102
107 162 123 29 8 52 20 52 28 0 7 5 13 11 13 6 0 40 14 74 30 86 41 221 55
315 34z m-1740 -28 c133 -30 306 -98 295 -116 -4 -6 -12 -10 -20 -10 -8 0 -17
-15 -21 -37 -4 -20 -22 -58 -41 -84 -18 -25 -33 -51 -33 -57 0 -5 -15 -32 -33
-58 -18 -27 -37 -58 -40 -68 -7 -19 -8 -19 -30 1 -77 68 -252 119 -379 111
-122 -8 -300 -90 -412 -190 -45 -40 -59 -61 -86 -130 -38 -99 -45 -114 -69
-153 -10 -17 -21 -53 -26 -80 -4 -28 -11 -58 -16 -68 -16 -29 15 -32 94 -9 40
12 139 35 221 51 197 41 393 87 446 106 56 20 82 13 71 -19 -5 -12 -17 -82
-27 -154 -9 -73 -20 -132 -23 -132 -3 0 -19 8 -36 18 -22 13 -39 16 -65 11
-113 -24 -263 -50 -312 -56 -32 -3 -58 -9 -58 -13 0 -3 -15 -7 -32 -8 -18 -1
-66 -3 -105 -5 -42 -3 -73 0 -73 5 0 5 -5 8 -11 6 -12 -4 -89 68 -89 83 0 5
-11 9 -25 9 -16 0 -25 6 -25 16 0 13 -2 13 -21 0 -19 -13 -24 -12 -50 11 -20
18 -29 36 -29 57 0 17 -4 36 -8 41 -11 15 -48 18 -71 5 -19 -10 -21 -7 -27 30
-7 41 -24 46 -25 7 0 -19 -3 -17 -17 11 -14 30 -15 35 0 60 8 15 18 47 22 72
9 58 86 218 144 299 65 91 206 231 282 280 238 154 517 211 760 157z m-2013
-82 c-3 -3 -12 -4 -19 -1 -8 3 -5 6 6 6 11 1 17 -2 13 -5z m5402 -195 c8 -31
11 -63 8 -72 -9 -24 -52 -21 -76 4 -14 15 -25 19 -38 13 -22 -10 -47 -15 -96
-19 -38 -3 -38 -3 -20 17 10 11 38 29 62 40 24 10 60 32 78 49 48 42 65 35 82
-32z m-2361 -46 c-1 -10 1 -24 5 -30 6 -9 2 -13 -12 -13 -24 0 -26 12 -9 40
16 25 20 25 16 3z m1876 -78 c31 -81 -9 -105 -51 -30 -39 70 -44 86 -32 101
18 22 63 -17 83 -71z m841 11 c17 -19 64 -36 70 -26 9 15 45 12 45 -3 0 -39
-53 -48 -93 -17 -16 12 -40 20 -65 20 -31 0 -40 4 -38 16 5 33 56 40 81 10z
m-4265 -145 c0 -4 12 -6 28 -3 24 5 26 4 13 -12 -9 -11 -21 -14 -35 -9 -12 3
-32 6 -46 5 -24 -1 -24 -1 -6 13 22 17 46 20 46 6z m-2115 -49 c13 -23 15 -41
5 -47 -12 -7 -57 32 -63 56 -5 18 -2 20 21 14 15 -4 31 -14 37 -23z m5708 -29
c20 -10 27 -18 19 -21 -16 -5 -62 17 -62 30 0 11 7 10 43 -9z m100 -40 c-7 -2
-19 -2 -25 0 -7 3 -2 5 12 5 14 0 19 -2 13 -5z m-3941 -103 c-2 -16 -8 -27
-13 -24 -5 3 -9 0 -9 -7 0 -7 -3 -10 -6 -6 -3 3 -3 19 1 36 9 41 33 42 27 1z
m-465 -192 c-3 -8 -6 -5 -6 6 -1 11 2 17 5 13 3 -3 4 -12 1 -19z m5266 -71
c14 -14 21 -33 20 -61 0 -34 0 -35 4 -8 4 29 23 47 23 22 0 -6 11 -16 25 -22
14 -6 25 -15 25 -19 0 -4 16 -23 35 -42 32 -31 34 -36 18 -43 -14 -6 -11 -9
17 -13 34 -6 35 -8 41 -56 4 -36 6 -41 7 -17 1 17 4 32 6 32 16 0 36 -14 36
-26 0 -8 6 -14 14 -14 21 0 220 -196 212 -209 -11 -17 -163 -14 -224 4 -29 9
-64 28 -80 43 -58 60 -92 102 -92 117 0 8 -5 15 -10 15 -14 0 -110 91 -110
105 0 5 -16 21 -35 34 -19 13 -35 27 -35 31 0 4 -9 17 -20 30 -11 13 -20 30
-20 39 1 14 2 14 14 -1 7 -10 18 -18 23 -18 6 0 13 -9 16 -20 4 -14 14 -20 32
-20 23 0 26 2 15 15 -7 8 -19 15 -26 15 -8 0 -14 7 -14 15 0 8 -6 15 -14 15
-26 0 -32 60 -6 68 7 3 10 0 6 -6 -10 -16 3 -39 25 -45 22 -6 37 12 19 23 -9
6 -9 9 -1 15 9 5 9 11 -1 22 -11 14 -10 15 11 8 12 -4 32 -16 44 -28z m-4999
-42 c-4 -8 -10 -12 -15 -9 -14 8 -10 24 6 24 9 0 12 -6 9 -15z m4313 9 c-3 -3
-12 -4 -19 -1 -8 3 -5 6 6 6 11 1 17 -2 13 -5z m-4277 -13 c0 -6 -4 -13 -10
-16 -5 -3 -10 1 -10 9 0 9 5 16 10 16 6 0 10 -4 10 -9z m-350 -10 c0 -13 -8
-17 -49 -26 -26 -5 -32 -4 -29 6 4 12 28 21 71 28 4 0 7 -3 7 -8z m4553 -21
c-3 -11 -9 -20 -14 -20 -10 0 -12 33 -3 43 12 12 22 -3 17 -23z m72 -20 c3 -5
-2 -19 -13 -30 -18 -20 -19 -20 -14 10 4 30 16 39 27 20z m-78 -76 c6 -16 -15
-37 -28 -28 -10 6 1 44 12 44 6 0 12 -7 16 -16z m93 -6 c-25 -9 -36 -5 -26 10
3 6 16 8 28 4 l22 -5 -24 -9z m-160 2 c0 -5 -9 -10 -21 -10 -11 0 -17 5 -14
10 3 6 13 10 21 10 8 0 14 -4 14 -10z m-40 -32 c7 -18 9 -19 9 -5 2 33 21 17
21 -17 0 -19 3 -41 6 -50 7 -19 34 -22 34 -3 0 8 3 8 9 -2 12 -19 41 -6 41 19
0 26 16 26 32 0 14 -22 38 -27 38 -9 0 8 4 8 14 -1 10 -8 74 -12 196 -14 99
-2 183 -6 187 -10 3 -3 0 -6 -8 -7 -31 -1 29 -18 69 -18 43 -1 57 13 22 22
-11 3 -20 11 -20 17 0 9 16 11 62 6 35 -4 65 -9 67 -12 9 -8 4 -65 -6 -75 -6
-6 -33 -13 -59 -15 -71 -5 -194 -42 -194 -56 0 -5 -6 -8 -13 -8 -27 0 -59 -92
-36 -106 7 -4 78 -8 158 -9 177 -3 191 -7 267 -85 36 -37 39 -52 35 -150 -4
-87 -58 -168 -184 -273 -59 -50 -70 -47 -40 14 20 39 59 148 73 198 9 36 0 72
-26 98 -12 12 -28 14 -77 9 -135 -13 -167 -19 -178 -32 -7 -9 -10 -73 -8 -191
3 -281 1 -273 62 -267 23 3 67 9 97 14 136 22 276 32 381 28 95 -3 123 -8 169
-29 108 -50 150 -106 150 -201 0 -78 -46 -146 -92 -135 -117 28 -166 40 -183
47 -31 13 -129 28 -262 41 -192 19 -628 1 -1194 -47 -79 -7 -107 5 -179 75
-74 73 -67 91 38 91 51 0 116 7 417 40 91 10 139 26 129 42 -3 5 -10 33 -14
61 -17 104 -18 108 -59 199 -21 48 -27 78 -15 78 17 0 113 -63 141 -92 31 -32
73 -115 73 -144 0 -29 32 -92 49 -97 42 -11 47 9 55 198 4 99 9 194 10 210 2
17 -3 44 -10 60 -12 30 -13 30 -111 36 -54 4 -118 12 -143 18 -62 16 -134 54
-138 73 -6 31 96 54 288 66 l114 7 9 45 c11 54 -13 110 -47 110 -12 1 -32 7
-46 15 -14 8 -35 14 -47 15 -13 0 -23 4 -23 8 0 15 -77 33 -107 26 -15 -4 -38
-16 -50 -26 -29 -27 -49 -14 -22 15 30 32 4 33 -37 2 -24 -18 -34 -33 -31 -45
3 -14 -8 -24 -47 -44 -79 -39 -154 -66 -184 -66 l-27 1 33 30 c18 16 36 27 41
25 4 -3 15 11 26 30 10 19 22 34 26 34 4 0 30 22 57 49 28 27 53 47 56 44 3
-4 6 2 6 12 0 22 92 113 98 97 6 -18 22 -4 22 19 0 26 19 24 30 -3z m5125 -22
c162 -60 171 -73 107 -147 -21 -24 -50 -65 -65 -91 -32 -56 -50 -60 -105 -23
-21 13 -72 34 -115 44 -68 18 -87 19 -165 9 -154 -19 -282 -101 -337 -215 -16
-32 -34 -70 -42 -85 -7 -14 -13 -40 -13 -57 0 -30 1 -31 47 -31 45 0 206 26
428 70 129 25 129 25 112 -93 -16 -107 -29 -125 -80 -106 -29 10 -58 9 -173
-5 -77 -10 -172 -24 -213 -32 -40 -8 -88 -14 -105 -14 -18 0 -40 -6 -49 -13
-15 -10 -16 -17 -6 -45 6 -18 8 -43 5 -57 -3 -13 -2 -26 3 -29 23 -14 312 28
519 75 50 11 78 -1 63 -30 -4 -9 -11 -43 -14 -77 -4 -33 -9 -68 -13 -77 -7
-19 -49 -23 -59 -6 -8 11 -53 8 -190 -16 -44 -8 -115 -19 -157 -26 -61 -9 -78
-15 -78 -28 0 -33 84 -109 170 -154 99 -52 124 -59 205 -58 122 1 233 47 330
138 26 24 55 43 64 43 24 0 81 -20 81 -29 0 -3 18 -17 40 -31 22 -14 40 -30
40 -37 0 -6 9 -15 20 -18 11 -3 20 -10 20 -15 0 -24 -142 -130 -175 -130 -7 0
-33 -18 -57 -40 -75 -66 -124 -82 -269 -88 -88 -3 -128 -1 -133 7 -5 7 5 11
28 11 20 0 36 5 36 11 0 6 -9 9 -20 6 -11 -3 -18 0 -17 7 1 6 -13 12 -33 12
-19 1 -43 5 -53 9 -10 4 -34 5 -53 2 -27 -5 -43 -1 -64 14 -26 20 -29 20 -53
5 -20 -14 -29 -15 -51 -5 -14 7 -26 20 -26 31 0 10 -6 18 -14 18 -8 0 -26 14
-39 30 -14 17 -33 30 -43 30 -13 0 -14 3 -4 15 16 20 4 35 -28 35 -30 0 -78
51 -117 123 l-22 42 -98 -3 -98 -2 7 37 c3 21 6 46 6 55 0 25 28 48 59 48 15
0 32 5 39 12 19 19 15 102 -6 128 -15 18 -21 20 -45 11 -43 -17 -50 -6 -44 65
5 72 18 94 53 94 33 0 62 32 69 77 10 60 44 151 87 234 72 138 204 262 363
340 122 60 170 70 315 65 114 -3 134 -7 225 -40z m-5025 2 c0 -7 -33 -28 -44
-28 -3 0 -6 13 -6 29 0 27 1 28 25 18 14 -7 25 -15 25 -19z m-4192 0 c7 -7 12
-24 12 -39 0 -14 9 -37 19 -51 12 -15 18 -33 14 -46 -3 -14 0 -24 10 -27 17
-7 224 20 259 34 40 16 138 40 290 71 81 17 160 37 175 45 43 23 48 8 35 -107
-7 -57 -12 -120 -12 -140 0 -41 -3 -43 -46 -28 -16 5 -54 12 -84 15 -30 3 -59
6 -65 6 -5 1 -31 -2 -57 -6 -33 -5 -48 -4 -48 4 0 6 -5 10 -12 9 -6 -2 -14 8
-18 22 -4 18 -14 26 -33 28 -16 2 -27 9 -27 19 0 9 -6 13 -14 10 -8 -3 -17 0
-19 7 -6 16 -152 22 -171 8 -6 -5 -38 -14 -71 -21 -33 -7 -80 -17 -103 -22
-51 -11 -67 -3 -75 39 -3 15 -11 45 -17 67 -7 22 -14 57 -17 78 -5 36 -5 37
29 37 19 0 39 -5 46 -12z m4732 -58 c0 -5 -8 -10 -17 -10 -15 0 -16 2 -3 10
19 12 20 12 20 0z m-5070 -204 c0 -2 -7 -7 -16 -10 -8 -3 -12 -2 -9 4 6 10 25
14 25 6z m863 -63 c-7 -2 -19 -2 -25 0 -7 3 -2 5 12 5 14 0 19 -2 13 -5z
m-338 -124 c14 -24 28 -52 31 -61 3 -10 15 -20 25 -23 11 -4 23 -15 29 -25 13
-24 138 -88 219 -111 95 -27 216 -35 293 -18 35 8 98 32 140 54 82 42 213 150
241 198 15 25 19 27 41 15 13 -7 53 -40 88 -73 36 -33 90 -78 121 -100 56 -40
68 -67 33 -73 -23 -5 -43 -25 -95 -96 -23 -31 -54 -63 -69 -73 -15 -9 -58 -37
-97 -63 -114 -75 -185 -102 -341 -129 -80 -15 -287 -14 -301 0 -6 6 -28 11
-49 11 -22 0 -44 4 -51 10 -7 5 -16 7 -21 4 -6 -3 -15 1 -22 9 -11 13 -8 15
19 15 17 0 31 5 31 10 0 20 27 9 38 -16 12 -26 32 -25 32 2 0 11 6 13 22 9 16
-6 20 -4 15 8 -3 8 0 20 6 26 6 6 8 11 5 11 -4 0 2 24 12 53 13 34 24 51 34
49 8 -1 17 7 21 18 5 15 12 19 30 14 19 -5 27 -1 36 19 11 24 60 44 80 31 5
-3 9 0 9 6 0 9 -14 10 -47 5 -120 -17 -222 0 -367 61 -81 34 -97 46 -187 136
-108 108 -122 139 -64 134 30 -3 39 -10 60 -47z m244 -73 c9 -11 5 -15 -25
-21 -41 -7 -70 9 -44 25 22 14 56 12 69 -4z m236 -134 c-3 -3 -11 0 -18 7 -9
10 -8 11 6 5 10 -3 15 -9 12 -12z m-198 -278 c-3 -3 -12 -4 -19 -1 -8 3 -5 6
6 6 11 1 17 -2 13 -5z m7198 -44 c22 -7 58 -17 80 -23 22 -6 44 -14 50 -19 5
-4 17 -8 28 -8 10 0 15 -5 12 -10 -4 -6 -15 -8 -26 -5 -22 7 -43 -4 -46 -25
-3 -26 -53 -153 -78 -201 -14 -26 -25 -54 -25 -63 0 -27 -31 -18 -43 13 -10
27 -16 30 -72 36 -33 4 -88 7 -123 8 -34 1 -62 6 -62 11 0 5 -7 17 -16 27 -8
9 -17 23 -19 31 -9 37 -18 58 -26 58 -5 0 -9 7 -9 15 0 8 -4 15 -10 15 -5 0
-9 3 -9 8 3 19 -3 28 -31 40 -30 14 -75 8 -65 -9 4 -5 -1 -9 -10 -9 -9 0 -13
5 -10 10 3 6 2 10 -4 10 -17 0 -22 -18 -6 -24 19 -7 19 -32 0 -40 -8 -3 -15 0
-15 7 0 21 -17 40 -29 32 -9 -5 -9 -10 -1 -20 9 -11 7 -17 -9 -27 -12 -7 -21
-19 -21 -26 0 -10 -10 -12 -41 -8 -22 3 -46 9 -52 12 -7 4 -9 4 -5 -1 4 -4
-14 -16 -41 -25 -26 -9 -67 -31 -89 -49 -23 -18 -42 -30 -42 -26 0 28 165 156
265 207 59 30 157 63 246 83 73 17 288 14 354 -5z m-530 -230 c3 -5 1 -10 -4
-10 -6 0 -11 5 -11 10 0 6 2 10 4 10 3 0 8 -4 11 -10z m1675 -295 c0 -8 -4
-15 -10 -15 -5 0 -7 7 -4 15 4 8 8 15 10 15 2 0 4 -7 4 -15z m-3821 -131 c31
-9 70 -20 86 -24 17 -4 23 -8 15 -9 -12 -1 -13 -3 -1 -10 11 -7 11 -10 0 -17
-7 -4 -14 -3 -17 4 -2 7 -16 11 -30 11 -17 -1 -21 -3 -9 -6 9 -2 17 -8 17 -13
0 -5 -8 -11 -17 -13 -10 -2 -5 -3 11 -1 16 2 42 4 58 4 17 0 27 4 23 10 -3 6
0 10 7 10 16 0 46 -19 33 -21 -5 -1 -16 -2 -22 -3 -7 0 -13 -4 -13 -8 0 -5 0
-11 0 -15 0 -5 26 -8 59 -9 51 0 62 -4 92 -32 19 -18 41 -34 49 -37 17 -6 60
-65 60 -83 0 -7 7 -12 15 -12 9 0 15 -10 15 -26 0 -14 4 -23 9 -20 5 4 15 -7
23 -24 7 -16 16 -30 20 -30 5 0 8 -9 8 -19 0 -11 5 -23 10 -26 6 -3 10 -24 10
-45 0 -21 5 -42 10 -45 6 -3 9 -21 9 -38 -2 -27 -2 -28 -6 -7 -8 41 -23 48
-23 10 0 -19 -5 -42 -10 -50 -7 -10 -10 -11 -10 -2 0 10 -4 10 -20 0 -21 -13
-27 -38 -10 -38 6 0 10 5 10 10 0 19 31 10 40 -12 9 -23 9 -23 10 2 0 14 4 31
9 39 18 28 31 -28 31 -134 0 -101 -1 -107 -26 -132 -23 -23 -27 -37 -30 -91
-3 -70 -14 -93 -37 -73 -11 9 -17 8 -25 -1 -14 -19 -26 -98 -14 -98 6 0 13 6
15 13 3 7 6 5 6 -5 1 -10 -2 -18 -7 -18 -4 0 -16 -16 -26 -35 -22 -39 -37 -41
-46 -4 l-6 24 -18 -27 c-10 -16 -24 -28 -32 -28 -17 0 -45 40 -37 53 3 6 1 7
-6 3 -6 -4 -18 -2 -26 4 -12 10 -15 10 -15 0 0 -9 -11 -11 -40 -6 -36 6 -40 4
-40 -14 0 -11 6 -20 14 -20 7 0 24 -11 37 -24 35 -34 63 -40 94 -20 14 9 28
14 32 10 3 -3 1 -6 -5 -6 -7 0 -11 -3 -11 -7 6 -38 -3 -53 -29 -53 -15 0 -32
4 -38 10 -5 5 -15 6 -23 0 -12 -7 -12 -11 2 -25 10 -9 17 -12 17 -6 0 17 17
13 24 -5 7 -19 -10 -44 -31 -44 -8 0 -17 9 -20 20 -3 11 -9 20 -14 20 -13 0
-31 -40 -25 -56 7 -19 -3 -18 -26 3 -18 16 -20 16 -43 -11 -22 -26 -29 -28
-66 -22 -24 4 -38 3 -35 -3 23 -37 -41 -42 -436 -31 -41 2 -58 6 -58 15 0 7
-3 22 -6 32 -4 11 -3 14 3 7 5 -7 58 -12 138 -14 176 -3 179 -3 185 -11 3 -3
31 -9 63 -13 62 -7 80 8 21 18 -25 5 -35 12 -33 24 3 37 -1 42 -38 38 -41 -3
-65 2 -59 13 3 4 -4 8 -15 8 -10 1 -19 -2 -19 -8 0 -5 -12 -9 -27 -9 -22 0
-25 2 -13 10 13 9 13 10 0 10 -13 0 -13 1 0 10 12 8 11 10 -8 10 -13 0 -34
-11 -48 -25 -14 -14 -22 -25 -19 -25 4 0 0 -7 -9 -15 -16 -17 -36 -20 -36 -6
0 5 -9 7 -19 4 -13 -3 -21 1 -25 14 -5 16 -14 18 -49 16 -108 -9 -155 -7 -166
5 -8 8 -8 12 -1 12 6 0 8 5 5 10 -3 6 -1 10 4 10 6 0 11 7 11 15 0 15 14 19
64 16 15 -1 44 3 62 8 21 6 34 6 34 0 0 -5 6 -9 14 -9 8 0 24 -11 36 -23 19
-19 29 -23 54 -17 18 4 30 12 28 19 -6 27 17 38 68 31 27 -4 50 -4 50 -1 -1
21 -22 33 -56 31 -22 -1 -43 -1 -49 0 -5 1 -26 1 -45 1 -27 -1 -31 1 -20 8 13
9 13 11 -2 11 -22 0 -24 28 -3 36 24 10 17 20 -12 18 -16 -1 -36 -3 -46 -3
-20 -1 -20 -36 0 -36 6 0 15 -4 20 -9 5 -5 3 -6 -4 -2 -7 4 -13 3 -13 -2 0 -6
-7 -12 -14 -15 -11 -4 -13 -1 -9 10 5 12 3 14 -7 8 -9 -5 -11 -4 -6 3 4 7 1
12 -8 12 -8 0 -17 -6 -19 -12 -4 -10 -8 -10 -15 0 -7 11 -10 11 -15 -2 -5 -13
1 -16 25 -16 23 0 29 -3 21 -11 -7 -7 -32 -7 -77 -1 -65 8 -68 8 -83 -15 -8
-12 -13 -30 -9 -38 3 -8 1 -15 -4 -15 -6 0 -10 -18 -10 -40 0 -22 -5 -40 -11
-40 -19 0 1 -18 28 -25 25 -6 52 -30 53 -47 0 -5 -10 -8 -22 -8 -15 0 -27 -10
-35 -27 -18 -37 -16 -43 8 -43 11 0 17 -5 14 -10 -4 -6 -11 -8 -16 -4 -5 3
-16 1 -23 -5 -10 -9 -15 -8 -20 4 -3 8 -3 21 0 28 2 7 0 24 -6 38 -7 18 -9 8
-4 -43 3 -47 1 -68 -6 -68 -6 0 -8 5 -5 10 3 6 3 15 -1 22 -4 7 -7 31 -5 55 3
53 -16 58 -22 6 -2 -26 -4 -20 -4 18 0 67 -6 79 -38 79 -32 0 -38 13 -14 28
11 7 19 8 19 2 0 -5 9 -10 20 -10 16 0 20 -7 20 -37 l1 -38 19 55 c11 30 19
56 20 58 0 1 -21 2 -47 2 -28 0 -53 6 -64 16 -13 12 -22 13 -38 5 -31 -17 -91
-14 -91 4 0 8 -7 15 -15 15 -11 0 -15 -11 -15 -40 0 -29 4 -40 15 -40 12 0 15
-16 15 -80 0 -47 -4 -80 -10 -80 -5 0 -10 -18 -10 -40 0 -33 -3 -40 -19 -40
-17 0 -20 10 -25 83 -4 45 -8 100 -9 122 -2 22 -5 -7 -7 -65 -2 -58 -5 -87 -8
-65 -2 22 -1 94 3 160 5 97 11 126 26 145 l19 25 18 -23 c17 -22 19 -22 33 -6
8 10 16 50 20 98 l6 81 1 -78 c2 -68 4 -78 20 -75 14 2 18 -5 20 -39 4 -54 22
-57 22 -4 0 25 -5 41 -15 45 -11 4 -15 23 -15 81 0 53 -4 74 -12 72 -15 -3
-22 27 -14 59 6 24 31 33 38 13 2 -6 18 3 36 20 38 36 42 38 42 11 0 -11 -5
-20 -11 -20 -5 0 -7 -5 -4 -10 11 -18 34 16 32 46 -2 23 -8 30 -30 32 -19 2
-27 -1 -27 -12 0 -9 -9 -16 -20 -16 -11 0 -20 -4 -20 -10 0 -6 -26 -10 -57
-10 -54 1 -57 2 -38 16 17 13 18 16 5 24 -25 17 -65 8 -66 -15 -2 -38 -4 -45
-14 -45 -5 0 -10 9 -10 19 0 11 -4 23 -10 26 -6 4 -10 -6 -10 -22 0 -22 -2
-25 -10 -13 -7 11 -10 11 -10 2 0 -27 -18 -1 -22 33 -3 27 0 35 12 35 24 0 20
151 -4 176 -13 12 -16 26 -12 48 4 17 8 42 9 55 1 13 11 28 22 33 16 7 15 8
-8 4 -17 -2 -26 1 -24 8 2 6 12 11 23 12 32 1 54 15 54 35 0 10 -4 19 -10 19
-18 0 -11 93 9 132 11 19 17 39 14 42 -4 3 2 12 12 19 13 10 16 23 13 50 l-4
36 66 -6 c36 -3 67 -10 68 -15 2 -4 9 -8 15 -8 5 0 7 3 3 7 -14 15 57 28 115
23 38 -4 59 -2 59 5 0 5 5 3 10 -5 8 -13 10 -13 10 1 0 18 26 28 75 30 29 1
30 1 5 9 l-25 8 28 1 c15 1 27 -3 27 -8 0 -5 44 -9 98 -8 57 0 106 -4 117 -11
18 -10 16 -11 -15 -12 -31 -1 -33 -2 -15 -12 11 -6 23 -16 26 -21 4 -5 14 -7
22 -4 11 4 14 1 10 -9 -3 -7 -13 -14 -23 -14 -23 0 -30 -19 -18 -44 12 -22 3
-32 -38 -40 -24 -5 -33 -3 -37 8 -4 9 -16 16 -27 16 -33 0 -23 16 20 33 37 14
40 14 40 -1 1 -16 1 -16 10 0 13 21 2 48 -16 41 -8 -3 -25 2 -39 11 -17 11
-31 13 -47 7 -13 -4 -33 -7 -45 -5 -15 3 -23 -1 -23 -11 0 -8 7 -15 16 -15 13
0 15 -7 11 -29 -5 -25 -3 -30 16 -33 12 -2 21 -8 20 -14 -1 -6 3 -11 10 -11 7
0 34 -10 60 -23 32 -15 47 -28 45 -39 -2 -9 -8 -16 -13 -16 -6 0 -21 -8 -35
-17 -32 -21 -66 -27 -63 -11 5 21 -30 32 -77 23 -29 -5 -50 -4 -57 2 -10 8
-13 6 -13 -6 0 -10 8 -16 23 -16 20 0 18 -3 -16 -33 -28 -24 -35 -35 -27 -47
15 -23 12 -33 -7 -28 -16 4 -18 -5 -21 -79 -2 -55 0 -83 7 -83 6 0 11 -18 11
-40 0 -22 -4 -40 -9 -40 -4 0 -9 -23 -10 -51 0 -41 4 -55 24 -75 14 -14 25
-29 25 -34 0 -25 48 -40 126 -38 43 1 111 0 149 -2 l70 -4 -70 -6 c-69 -6 -69
-6 41 -10 111 -5 112 -5 103 16 -4 12 -5 25 -2 28 12 11 41 6 46 -8 4 -11 14
-13 33 -7 35 9 43 31 15 38 -26 7 -26 10 2 39 24 26 43 30 50 12 4 -8 6 -7 6
4 1 9 -5 19 -11 21 -8 3 -6 6 5 6 13 1 17 10 17 42 0 26 4 38 11 34 6 -4 7
-19 4 -36 -5 -21 -3 -29 7 -29 9 0 13 15 14 48 0 26 4 74 8 108 7 51 6 62 -7
67 -17 6 -34 -9 -23 -20 3 -4 6 0 6 8 0 11 2 11 10 -1 10 -16 14 -60 4 -60 -8
0 -34 27 -34 36 0 16 -42 94 -51 94 -5 0 -9 7 -9 15 0 8 -9 20 -20 27 -24 15
-25 24 -4 46 16 15 15 17 -12 24 -15 4 -32 14 -37 23 -11 20 -39 1 -30 -21 7
-20 -4 -17 -30 6 -12 12 -28 18 -37 14 -38 -16 -49 -15 -60 5 -13 26 8 78 31
72 21 -5 49 -4 92 4 21 4 43 2 50 -3 8 -6 27 -2 57 12 l45 21 -45 6 c-35 5
-39 6 -15 8 l30 2 -40 19 c-51 23 -95 26 -95 5 0 -12 -4 -13 -19 -6 -10 6 -21
7 -25 4 -3 -3 -6 -1 -6 5 0 7 11 12 25 12 18 0 25 5 25 20 0 19 1 19 24 5 13
-8 31 -13 40 -9 27 10 18 24 -16 24 l-33 1 28 15 c15 8 31 12 36 10 5 -3 14 1
21 9 7 8 24 15 37 15 23 0 24 -2 12 -17 -8 -9 -9 -14 -3 -10 11 6 39 13 109
27 22 4 30 8 18 9 -12 0 -24 5 -27 10 -4 5 -21 4 -43 -2 -28 -9 -37 -9 -41 1
-5 15 -79 16 -84 2 -2 -6 -12 -2 -24 8 -11 11 -30 25 -43 31 -31 17 -10 41 35
41 24 0 34 5 34 15 0 8 10 16 23 17 12 0 28 2 36 2 8 1 16 7 19 15 4 12 -12
13 -94 7 -121 -8 -681 -9 -695 -1 -5 4 -9 2 -9 -2 0 -5 -39 -9 -87 -9 -134 0
-193 -7 -193 -21 0 -7 9 -13 20 -13 17 0 18 -2 8 -13 -16 -17 -36 0 -48 41
l-8 27 -1 -25 c-1 -20 -3 -22 -11 -10 -8 13 -10 12 -10 -2 0 -10 4 -18 9 -18
4 0 6 -11 4 -24 -3 -14 1 -33 8 -44 14 -19 19 -22 39 -22 18 0 -1 -28 -23 -34
-18 -5 -19 -8 -7 -16 9 -5 14 -21 12 -38 -3 -26 -1 -29 20 -25 18 3 27 -1 36
-21 7 -16 8 -28 2 -31 -6 -4 -10 -1 -10 4 0 6 -5 11 -11 11 -7 0 -8 -11 -4
-30 4 -19 2 -36 -5 -45 -7 -9 -10 -43 -8 -93 2 -61 0 -78 -9 -75 -10 4 -13
-20 -14 -98 0 -57 -4 -130 -8 -161 -4 -32 -3 -58 1 -58 12 0 10 -148 -3 -171
-7 -14 -7 -44 1 -102 6 -45 10 -108 10 -140 -1 -44 3 -62 16 -71 14 -11 15
-22 6 -87 l-9 -74 -2 55 c-1 30 -4 65 -7 78 l-7 23 -13 -27 c-8 -14 -14 -48
-14 -75 0 -27 -4 -49 -10 -49 -5 0 -9 -12 -9 -27 1 -16 3 -21 6 -11 2 10 10
15 19 11 17 -6 18 -30 2 -36 -10 -4 -10 -8 1 -15 9 -7 10 -12 2 -16 -6 -4 -12
-19 -12 -34 -1 -20 -4 -17 -9 13 l-7 40 -2 -38 c-1 -28 5 -44 23 -62 14 -14
27 -21 30 -17 4 8 19 76 21 102 0 9 5 22 10 30 8 11 11 5 16 -25 l6 -40 2 45
c3 85 19 78 20 -9 0 -51 -3 -80 -9 -76 -6 3 -10 0 -10 -7 0 -11 -2 -10 -9 0
-12 20 -22 -9 -28 -83 -4 -54 -14 -74 -35 -75 -5 0 -8 20 -8 45 0 33 -4 45
-15 45 -11 0 -15 -11 -15 -40 0 -22 5 -40 10 -40 6 0 10 -8 9 -17 0 -10 -3
-13 -5 -6 -3 7 -12 9 -20 6 -12 -4 -14 21 -14 166 0 94 4 171 8 171 5 0 7 19
6 43 -2 23 -3 55 -3 70 -1 16 -5 26 -9 23 -5 -3 -10 -103 -12 -223 -5 -368 -5
-392 -12 -398 -16 -17 -28 11 -28 66 0 38 4 58 10 54 11 -7 14 28 3 38 -10 11
-12 319 -2 346 6 14 6 28 -1 35 -6 8 -10 272 -10 735 0 454 -4 729 -10 741 -6
12 -6 20 0 22 5 2 292 2 636 0 528 -2 635 -5 683 -18z m1925 -22 c13 -26 27
-62 31 -80 4 -18 13 -45 21 -60 8 -15 14 -35 14 -44 0 -9 5 -20 10 -23 6 -3
10 -15 10 -25 0 -17 27 -82 75 -180 7 -14 20 -52 30 -85 9 -33 21 -69 25 -80
20 -51 40 -112 40 -123 0 -17 -18 -15 -23 3 -3 11 -4 10 -3 -2 1 -12 9 -17 24
-16 17 2 22 -2 22 -22 0 -14 3 -25 8 -25 6 0 16 -19 55 -110 8 -19 21 -55 27
-80 7 -25 25 -71 41 -104 16 -32 29 -63 29 -70 1 -6 9 -29 20 -51 11 -22 19
-46 20 -53 0 -7 4 -20 10 -30 18 -33 57 -128 81 -197 13 -38 27 -71 32 -73 4
-2 7 -12 7 -23 0 -17 26 -85 51 -131 5 -10 9 -23 9 -28 0 -6 9 -30 20 -52 11
-23 20 -50 20 -60 0 -10 4 -18 8 -18 5 0 15 -19 21 -42 7 -24 17 -47 21 -53 5
-5 11 -28 16 -49 l7 -39 -174 7 c-96 4 -253 8 -349 9 -196 2 -188 -2 -189 79
-1 26 -5 49 -10 53 -5 3 -12 18 -16 33 -3 15 -16 40 -28 56 l-23 28 -329 4
c-182 3 -352 5 -378 6 -64 1 -90 -24 -119 -116 -12 -39 -26 -72 -30 -74 -4 -2
-8 -13 -8 -25 0 -38 -12 -45 -60 -37 -25 4 -39 8 -32 9 7 0 10 6 7 11 -9 15
-25 12 -25 -5 0 -13 -27 -15 -182 -15 -109 0 -177 4 -169 9 20 13 -42 26 -103
22 -37 -2 -47 0 -44 10 3 8 1 25 -4 38 -5 15 -4 28 4 38 8 10 9 16 1 21 -15
10 1 98 22 118 8 9 15 23 15 33 0 9 5 22 12 29 7 7 9 12 6 12 -4 0 0 17 9 38
8 20 18 51 20 67 3 17 8 32 13 35 4 3 13 23 21 45 11 33 14 36 17 18 4 -27 20
-30 29 -7 4 11 -1 22 -12 30 -18 14 -18 14 1 14 16 0 16 2 4 10 -12 7 -12 12
-2 22 6 6 12 9 12 4 0 -4 12 6 26 23 14 17 23 37 21 43 -3 8 -6 6 -6 -4 -1
-10 -5 -18 -11 -18 -13 0 -4 60 15 96 8 16 15 35 15 42 0 9 10 12 28 10 22 -2
26 0 24 17 -2 11 -10 25 -19 32 -14 11 -13 15 1 44 9 18 16 40 16 49 0 9 9 25
20 35 10 9 19 20 18 24 -3 16 15 60 23 55 9 -5 10 3 14 64 1 15 14 52 29 83
14 31 26 61 26 67 0 7 5 11 12 10 6 -2 13 14 16 37 2 22 8 47 13 57 5 9 9 26
9 38 0 11 6 23 13 25 6 3 13 17 14 31 0 14 8 40 16 58 9 17 32 78 53 136 20
58 45 123 54 145 10 22 24 58 31 80 7 22 17 44 21 50 4 5 8 18 8 30 0 12 5 26
12 33 7 7 8 12 3 12 -4 0 0 9 10 20 18 19 30 20 392 19 l373 -1 24 -46z
m-4124 13 c14 -8 35 -14 47 -15 12 0 25 -5 28 -10 4 -7 -2 -9 -17 -5 -12 3
-33 7 -45 8 -13 0 -23 5 -23 9 0 4 -17 8 -37 8 -28 0 -34 3 -23 10 21 13 40
12 70 -5z m4886 -16 c3 -6 2 -15 -2 -19 -12 -12 -38 5 -30 19 9 14 23 14 32 0z
m-4949 -5 c-3 -3 -12 -4 -19 -1 -8 3 -5 6 6 6 11 1 17 -2 13 -5z m4858 -3 c3
-5 0 -13 -6 -17 -8 -5 -10 -34 -5 -100 7 -108 1 -144 -24 -144 -29 0 -37 20
-44 110 -4 46 -8 86 -10 87 -2 2 -22 -4 -46 -12 -23 -8 -56 -15 -72 -15 -16 0
-38 -5 -49 -10 -28 -16 -23 5 6 24 36 23 195 85 222 85 12 1 24 -3 28 -8z
m-4658 -37 c-3 -3 -12 -4 -19 -1 -8 3 -5 6 6 6 11 1 17 -2 13 -5z m1573 -36
c0 -5 -20 -8 -45 -8 -25 0 -45 5 -45 10 0 6 10 10 23 10 12 0 29 4 37 10 14 8
29 -3 30 -22z m-1633 16 c-3 -3 -12 -4 -19 -1 -8 3 -5 6 6 6 11 1 17 -2 13 -5z
m1867 -9 c-4 -8 -14 -15 -23 -15 -9 0 -34 -9 -56 -20 -50 -26 -88 -27 -83 -2
2 12 14 18 41 20 20 2 37 7 37 12 0 5 19 11 43 13 23 2 43 4 44 5 1 1 0 -5 -3
-13z m476 11 c0 -2 -11 -6 -25 -8 -13 -3 -22 -1 -19 3 5 9 44 13 44 5z m-900
-36 c0 -17 -9 -39 -20 -50 -22 -22 -40 -26 -40 -10 0 6 4 10 10 10 5 0 7 7 3
17 -5 14 -8 13 -14 -5 -7 -19 -16 -22 -62 -22 -43 0 -53 3 -54 18 -1 9 -2 22
-3 27 -6 27 3 32 57 34 31 0 59 3 61 6 3 3 18 5 34 5 24 0 28 -4 28 -30z
m-1310 10 c0 -5 -7 -10 -15 -10 -8 0 -15 5 -15 10 0 6 7 10 15 10 8 0 15 -4
15 -10z m1104 -5 c3 -8 1 -15 -4 -15 -6 0 -10 7 -10 15 0 8 2 15 4 15 2 0 6
-7 10 -15z m386 -18 c0 -7 -14 -13 -32 -14 l-32 -1 25 14 c30 17 39 17 39 1z
m-423 -7 c35 0 26 -6 -19 -13 -30 -5 -38 -3 -38 10 0 10 6 13 16 9 9 -3 27 -6
41 -6z m-1357 -40 c0 -5 -4 -10 -10 -10 -5 0 -10 5 -10 10 0 6 5 10 10 10 6 0
10 -4 10 -10z m2020 -26 c0 -8 -5 -12 -10 -9 -6 4 -8 11 -5 16 9 14 15 11 15
-7z m-3020 -4 c0 -5 -2 -10 -4 -10 -3 0 -8 5 -11 10 -3 6 -1 10 4 10 6 0 11
-4 11 -10z m100 0 c0 -5 -4 -10 -10 -10 -5 0 -10 5 -10 10 0 6 5 10 10 10 6 0
10 -4 10 -10z m1160 -27 c0 -7 -4 -13 -9 -13 -5 0 -11 6 -14 13 -3 8 1 14 9
14 8 0 14 -6 14 -14z m170 2 c0 -8 -4 -15 -10 -15 -5 0 -7 7 -4 15 4 8 8 15
10 15 2 0 4 -7 4 -15z m-2460 -65 c30 -11 62 -20 71 -20 8 0 31 -13 49 -30 18
-16 37 -30 41 -30 12 0 52 -43 68 -72 16 -31 9 -56 -16 -65 -10 -3 -32 -17
-50 -30 -51 -37 -87 -40 -114 -9 -12 14 -28 26 -35 26 -7 0 -14 4 -16 9 -1 5
-28 26 -58 46 -44 29 -68 38 -115 42 -33 3 -67 9 -75 14 -9 5 -22 2 -33 -8
-13 -13 -20 -14 -29 -5 -9 9 -5 14 13 21 28 10 10 21 -31 18 -16 -1 -25 3 -25
12 0 15 8 21 70 48 22 9 42 20 45 24 9 13 74 27 130 28 33 1 78 -7 110 -19z
m2464 -12 c4 -17 2 -28 -4 -28 -5 0 -10 14 -10 32 0 36 4 35 14 -4z m82 -4 c6
-5 15 -26 19 -45 l7 -34 -28 25 c-16 14 -30 25 -30 25 -1 0 -5 16 -9 35 -7 33
-7 34 11 20 10 -8 24 -20 30 -26z m49 -14 c3 -11 11 -20 16 -20 6 0 7 -5 3
-12 -5 -8 -13 -4 -26 11 -20 25 -23 41 -9 41 5 0 13 -9 16 -20z m1452 -22 c-3
-8 -6 -5 -6 6 -1 11 2 17 5 13 3 -3 4 -12 1 -19z m-1537 -12 c0 -3 -4 -8 -10
-11 -5 -3 -10 -1 -10 4 0 6 5 11 10 11 6 0 10 -2 10 -4z m101 -39 c-13 -13
-26 -3 -16 12 3 6 11 8 17 5 6 -4 6 -10 -1 -17z m-78 -19 c-7 -40 -13 -49 -13
-20 0 11 -3 27 -6 36 -4 10 -1 16 10 16 12 0 14 -7 9 -32z m-2963 7 c-11 -13
-8 -15 13 -15 14 0 30 7 34 15 10 18 53 9 53 -11 0 -8 -4 -14 -9 -14 -5 0 -16
-15 -25 -34 -8 -18 -45 -65 -81 -104 -84 -91 -82 -102 30 -116 98 -12 289 -56
296 -68 5 -7 9 -21 9 -31 0 -19 -77 -127 -91 -127 -5 0 -26 9 -47 20 -22 12
-106 36 -187 55 -165 39 -175 37 -175 -24 0 -56 36 -78 173 -102 61 -12 122
-23 135 -25 33 -7 38 -31 14 -80 -36 -74 -51 -78 -168 -45 -201 57 -228 52
-205 -42 26 -103 84 -168 175 -192 77 -21 121 -17 196 18 66 30 82 24 99 -35
7 -24 21 -57 32 -74 10 -17 19 -38 19 -47 0 -30 -206 -81 -325 -80 -111 0
-177 27 -248 100 -92 94 -137 212 -137 358 0 70 -3 85 -26 118 -30 45 -27 87
7 87 28 0 79 56 79 85 0 13 -5 36 -10 51 -8 21 -7 33 7 57 10 16 20 29 23 28
3 -2 25 5 50 15 48 19 100 66 100 91 0 24 51 78 74 78 14 0 21 6 21 20 0 11
10 24 23 30 12 5 22 13 22 17 0 5 6 8 14 8 7 0 19 7 26 15 7 8 15 15 17 15 3
0 0 -7 -7 -15z m3010 -36 c0 -5 -4 -9 -10 -9 -5 0 -10 5 -10 11 0 5 -5 7 -12
3 -7 -4 -8 -3 -4 4 7 12 36 5 36 -9z m4352 -106 c3 -118 -2 -136 -39 -127 -27
7 -37 48 -29 118 9 74 -1 84 -58 58 -25 -12 -56 -22 -68 -21 -22 0 -6 9 102
58 14 7 36 18 50 26 14 8 28 11 32 7 4 -4 8 -57 10 -119z m-5279 105 c3 -10 7
-10 18 -1 11 9 33 9 92 1 42 -6 75 -14 72 -17 -7 -6 -158 -3 -199 5 -21 5 -25
8 -15 15 19 12 27 11 32 -3z m234 -4 c-3 -3 -12 -4 -19 -1 -8 3 -5 6 6 6 11 1
17 -2 13 -5z m797 -34 c7 -14 21 -39 30 -57 27 -52 13 -100 -29 -98 -11 1 -32
2 -47 3 -33 2 -37 18 -8 27 11 3 20 14 20 23 0 12 4 9 13 -8 15 -30 54 -43 42
-14 -4 11 -9 36 -12 56 -3 22 -10 35 -16 31 -5 -3 -7 -2 -4 4 4 6 0 19 -8 29
-8 10 -15 23 -15 27 0 16 22 1 34 -23z m1086 10 c0 -5 -4 -10 -10 -10 -5 0
-10 5 -10 10 0 6 5 10 10 10 6 0 10 -4 10 -10z m330 -25 c0 -8 -4 -15 -10 -15
-5 0 -10 7 -10 15 0 8 5 15 10 15 6 0 10 -7 10 -15z m-2170 -15 c0 -5 -9 -10
-20 -10 -11 0 -20 5 -20 10 0 6 9 10 20 10 11 0 20 -4 20 -10z m216 -50 c8 0
17 -7 20 -15 7 -18 -14 -47 -27 -39 -5 3 -9 -7 -9 -22 0 -22 -3 -24 -14 -15
-11 10 -16 8 -24 -5 -8 -15 -12 -15 -31 -2 -11 8 -18 18 -14 21 3 4 -1 7 -10
7 -9 0 -17 5 -17 10 0 6 7 10 15 10 9 0 13 7 9 18 -2 9 1 7 7 -5 14 -26 47
-39 61 -25 7 7 7 20 0 41 -8 22 -7 37 1 55 l12 26 3 -30 c2 -18 9 -30 18 -30z
m304 24 c0 -22 -2 -25 -15 -14 -8 7 -15 19 -15 26 0 8 7 14 15 14 10 0 15 -10
15 -26z m-87 -11 c-7 -2 -19 -2 -25 0 -7 3 -2 5 12 5 14 0 19 -2 13 -5z m6862
-27 c71 -13 250 -57 342 -85 47 -14 230 -111 258 -137 20 -18 23 -28 18 -65
-3 -24 -9 -48 -14 -53 -5 -6 -9 -19 -9 -30 0 -11 -8 -36 -17 -56 -16 -31 -25
-38 -68 -48 -62 -15 -115 -15 -115 -2 0 6 5 10 10 10 6 0 10 14 10 31 0 22 5
32 19 36 11 3 25 19 32 36 7 18 19 39 26 48 13 15 11 17 -14 16 -15 -1 -31 -5
-34 -10 -3 -5 -23 3 -44 17 -125 85 -310 142 -432 132 -58 -5 -73 -3 -73 8 0
18 -92 66 -125 66 -17 0 -25 -6 -25 -17 0 -13 -18 -24 -61 -38 -34 -11 -60
-24 -60 -30 2 -16 86 -33 154 -32 39 0 61 -3 60 -10 -1 -6 21 -20 50 -31 55
-21 262 -72 294 -72 11 0 27 -6 37 -13 17 -12 17 -14 -3 -37 -11 -14 -20 -21
-21 -15 0 5 -18 -9 -40 -30 -39 -38 -41 -39 -76 -26 -35 13 -190 53 -344 91
-41 9 -106 25 -145 35 -176 42 -189 45 -199 35 -15 -15 4 -29 54 -39 25 -5 88
-20 140 -34 52 -13 140 -35 195 -47 55 -12 129 -30 165 -40 36 -10 77 -21 93
-24 15 -4 27 -12 27 -19 0 -16 -80 -94 -100 -98 -8 -2 -46 6 -85 18 -121 36
-398 111 -437 119 -21 3 -38 3 -38 -1 0 -19 23 -43 66 -65 26 -14 56 -31 65
-39 24 -19 170 -77 244 -97 33 -8 76 -19 95 -24 80 -22 94 -17 108 34 7 27 21
49 37 60 14 9 25 12 25 7 0 -5 -5 -13 -10 -16 -6 -4 -10 -14 -9 -23 1 -10 -3
-28 -9 -42 -17 -41 7 -50 125 -50 l104 0 60 -41 c103 -70 129 -97 129 -135 0
-19 -4 -34 -8 -34 -5 0 -14 -23 -21 -50 -10 -40 -16 -48 -26 -40 -10 8 -13 7
-11 -6 1 -20 -56 -51 -104 -56 -34 -3 -35 -2 -38 35 -4 52 24 144 46 151 9 3
43 5 75 5 119 1 88 28 -34 30 -54 1 -69 -3 -84 -19 -14 -15 -33 -20 -99 -22
l-81 -3 -3 -40 c-2 -22 -8 -44 -13 -50 -5 -5 -9 -21 -9 -36 0 -20 -7 -30 -29
-39 -51 -21 -196 20 -186 53 2 7 6 44 10 82 l6 70 -43 21 c-52 26 -107 44
-135 44 -11 0 -26 7 -33 15 -7 9 -18 14 -23 12 -11 -3 -35 -103 -36 -149 -1
-25 -5 -28 -33 -28 -19 1 -45 11 -61 24 -32 26 -38 66 -21 146 l10 45 44 -3
44 -3 -23 25 c-28 30 -57 38 -71 21 -9 -11 -21 -9 -63 11 -29 13 -57 24 -63
24 -7 0 -9 -19 -6 -54 3 -33 0 -56 -7 -60 -6 -4 -11 -16 -11 -28 0 -14 -5 -18
-16 -14 -9 3 -21 6 -28 6 -26 0 -33 43 -23 132 l10 87 31 -32 31 -32 3 30 c2
17 -1 31 -8 33 -7 3 -28 18 -47 35 -26 23 -43 30 -69 29 -35 -3 -40 6 -60 106
-6 29 -12 33 -80 53 -61 18 -75 26 -80 46 -4 12 -10 23 -15 23 -21 0 -6 29 22
42 23 12 41 13 71 6 46 -10 78 -3 78 18 0 8 -15 16 -40 20 -22 4 -43 11 -46
15 -3 5 7 25 22 45 l28 36 61 -7 c58 -6 66 -4 141 34 139 70 266 92 494 86 80
-2 181 -10 225 -19z m-6955 -7 c0 -18 -2 -20 -16 -8 -13 10 -17 10 -26 -2 -7
-11 -11 -11 -15 -1 -2 6 -11 12 -19 12 -8 0 -14 4 -14 8 0 5 20 9 45 11 40 2
45 0 45 -20z m66 14 c-11 -11 -46 -14 -46 -3 0 6 12 10 27 10 14 0 23 -3 19
-7z m194 -3 c0 -5 -4 -10 -9 -10 -5 0 -16 -3 -25 -6 -11 -4 -16 -1 -16 10 0
10 9 16 25 16 14 0 25 -4 25 -10z m-336 -76 c24 -9 19 -50 -9 -79 -29 -28 -45
-32 -45 -10 0 8 8 15 18 15 15 1 14 3 -5 19 -21 17 -21 19 -5 40 19 23 23 24
46 15z m286 -24 c0 -5 -7 -10 -15 -10 -8 0 -15 5 -15 10 0 6 7 10 15 10 8 0
15 -4 15 -10z m270 0 c0 -5 -13 -10 -30 -10 -16 0 -30 5 -30 10 0 6 14 10 30
10 17 0 30 -4 30 -10z m-2034 -47 c-10 -10 -19 5 -10 18 6 11 8 11 12 0 2 -7
1 -15 -2 -18z m1404 7 c0 -5 -5 -10 -11 -10 -5 0 -7 5 -4 10 3 6 8 10 11 10 2
0 4 -4 4 -10z m5305 -26 c81 -47 177 -94 193 -94 17 0 15 -7 -13 -44 -14 -18
-25 -37 -25 -43 0 -5 -10 -18 -21 -29 -23 -20 -99 -119 -99 -129 0 -10 -95
-97 -122 -111 -60 -31 -44 -4 65 108 46 48 92 103 101 122 9 20 24 39 33 44
13 8 -4 21 -79 65 -104 62 -137 76 -155 70 -16 -6 -16 0 1 42 19 45 43 45 121
-1z m-3778 -6 c-3 -8 -6 -5 -6 6 -1 11 2 17 5 13 3 -3 4 -12 1 -19z m-2980
-20 c-3 -8 -6 -5 -6 6 -1 11 2 17 5 13 3 -3 4 -12 1 -19z m-60 -30 c-3 -8 -6
-5 -6 6 -1 11 2 17 5 13 3 -3 4 -12 1 -19z m4233 -97 c0 -6 -4 -13 -10 -16 -5
-3 -10 1 -10 9 0 9 5 16 10 16 6 0 10 -4 10 -9z m2339 -25 c-13 -14 -25 -23
-27 -21 -7 7 24 45 36 45 9 0 6 -9 -9 -24z m2241 -96 c0 -5 -5 -10 -11 -10 -5
0 -7 5 -4 10 3 6 8 10 11 10 2 0 4 -4 4 -10z m-8768 -72 c-10 -22 -11 -21 -11
12 -1 26 2 31 11 22 8 -8 8 -17 0 -34z m4132 27 c-4 -8 -8 -15 -10 -15 -2 0
-4 7 -4 15 0 8 4 15 10 15 5 0 7 -7 4 -15z m-1593 -95 c3 -50 -9 -83 -21 -59
-9 19 0 123 10 112 5 -4 10 -28 11 -53z m-1994 24 c-9 -9 -28 6 -21 18 4 6 10
6 17 -1 6 -6 8 -13 4 -17z m-30 -46 c-3 -7 -5 -2 -5 12 0 14 2 19 5 13 2 -7 2
-19 0 -25z m-560 0 c-3 -8 -6 -5 -6 6 -1 11 2 17 5 13 3 -3 4 -12 1 -19z m589
-5 c-10 -10 -19 5 -10 18 6 11 8 11 12 0 2 -7 1 -15 -2 -18z m926 -15 c-7 -7
-12 -8 -12 -2 0 14 12 26 19 19 2 -3 -1 -11 -7 -17z m1118 -8 c5 0 10 8 12 18
3 14 5 14 10 2 3 -8 0 -20 -6 -26 -17 -16 -51 9 -40 28 7 10 9 9 12 -4 2 -10
7 -18 12 -18z m-1010 10 c3 0 -2 -5 -10 -11 -12 -8 -10 -9 8 -4 13 4 28 1 36
-8 9 -9 26 -12 43 -9 25 5 27 4 14 -11 -7 -9 -17 -14 -22 -11 -5 3 -9 0 -9 -7
0 -9 -4 -9 -15 1 -20 17 -75 3 -75 -18 0 -13 2 -14 9 -3 6 9 11 10 15 2 4 -6
2 -11 -3 -11 -6 0 -11 -4 -11 -10 0 -14 22 -12 59 6 19 10 42 13 60 9 17 -3
32 -2 36 4 3 6 16 11 28 12 17 0 13 5 -18 20 l-40 19 60 -6 c113 -10 141 -15
176 -27 37 -13 50 -29 27 -35 -10 -3 -10 -1 -1 5 7 5 -39 10 -109 11 -67 2
-120 1 -117 -2 2 -2 47 -7 99 -11 52 -4 98 -11 101 -16 3 -6 19 -9 34 -7 16 2
30 -2 32 -9 3 -9 -6 -13 -26 -13 -16 0 -33 -4 -36 -10 -3 -5 3 -10 14 -10 35
0 23 -17 -16 -23 -28 -5 -40 -2 -53 13 -10 12 -29 20 -46 19 -29 -1 -29 -1 -4
-9 23 -7 23 -8 4 -9 -13 -1 -24 -10 -27 -23 -6 -21 -7 -21 -25 -5 -10 9 -26
17 -35 17 -11 0 -17 8 -17 23 1 20 2 21 14 4 8 -10 20 -15 30 -11 12 5 14 10
6 19 -12 14 -67 18 -75 4 -4 -5 -1 -9 5 -9 6 0 8 -4 5 -10 -3 -5 -19 -10 -36
-10 -19 0 -29 -5 -29 -15 0 -8 5 -15 10 -15 18 0 25 -2 44 -15 10 -8 26 -11
35 -7 13 5 14 3 4 -9 -10 -12 -8 -15 8 -16 10 -1 19 2 19 6 0 4 17 7 38 5 53
-3 52 -3 52 -19 0 -12 -14 -15 -65 -15 -50 0 -65 -3 -65 -15 0 -20 -28 -8 -35
16 -4 10 -15 19 -26 19 -12 0 -19 7 -19 20 0 13 -7 20 -19 20 -18 0 -19 3 -9
31 11 33 1 49 -34 49 -9 0 -20 9 -23 20 -7 22 -35 28 -35 8 0 -7 7 -26 15 -42
10 -19 12 -33 5 -45 -8 -14 -9 -13 -10 5 0 12 -7 27 -15 34 -8 7 -17 27 -21
46 -3 19 -15 45 -26 59 -16 21 -17 25 -4 25 9 0 16 -5 16 -11 0 -5 5 -7 11 -3
6 3 8 15 6 26 -6 20 -7 20 83 8z m2350 0 c0 -5 -7 -10 -15 -10 -8 0 -15 5 -15
10 0 6 7 10 15 10 8 0 15 -4 15 -10z m430 0 c0 -5 -5 -10 -11 -10 -5 0 -7 5
-4 10 3 6 8 10 11 10 2 0 4 -4 4 -10z m-3790 -48 c0 -7 -4 -10 -10 -7 -5 3
-10 16 -10 28 0 18 2 19 10 7 5 -8 10 -21 10 -28z m9150 28 c0 -5 -5 -10 -11
-10 -5 0 -7 5 -4 10 3 6 8 10 11 10 2 0 4 -4 4 -10z m-9295 -40 c-5 -8 -11 -8
-17 -2 -6 6 -7 16 -3 22 5 8 11 8 17 2 6 -6 7 -16 3 -22z m2072 -12 c-3 -7 -5
-2 -5 12 0 14 2 19 5 13 2 -7 2 -19 0 -25z m758 -8 c3 -5 1 -10 -4 -10 -6 0
-11 5 -11 10 0 6 2 10 4 10 3 0 8 -4 11 -10z m-1775 -62 c0 -16 -5 -28 -11
-28 -6 0 -9 -7 -5 -15 3 -8 1 -15 -4 -15 -6 0 -10 -7 -10 -15 0 -28 -28 -15
-32 15 -4 24 -1 30 14 30 15 0 17 5 12 25 -7 30 14 64 27 43 5 -7 9 -25 9 -40z
m1017 15 c-3 -10 -5 -4 -5 12 0 17 2 24 5 18 2 -7 2 -21 0 -30z m-403 9 c-6
-4 -13 -14 -16 -22 -3 -10 -6 -8 -10 8 -5 18 -2 22 15 22 13 0 17 -3 11 -8z
m-1524 -17 c0 -8 5 -15 10 -15 6 0 10 5 10 11 0 5 5 7 10 4 6 -4 4 -12 -5 -21
-13 -14 -17 -14 -30 0 -17 17 -20 36 -5 36 6 0 10 -7 10 -15z m-529 -38 c-8
-8 -11 -3 -11 19 1 25 2 27 11 11 8 -14 8 -22 0 -30z m2013 20 c7 -7 11 -18 8
-25 -2 -6 4 -12 14 -12 15 0 16 -2 5 -12 -11 -10 -14 -10 -18 0 -7 19 -23 14
-23 -8 0 -28 -11 -25 -44 13 -24 26 -26 33 -12 35 9 2 16 8 16 13 0 13 39 11
54 -4z m-1399 -17 c-3 -5 -11 -10 -16 -10 -6 0 -7 5 -4 10 3 6 11 10 16 10 6
0 7 -4 4 -10z m8815 0 c0 -5 -5 -10 -11 -10 -5 0 -7 5 -4 10 3 6 8 10 11 10 2
0 4 -4 4 -10z m-6947 -161 c-4 -4 -6 31 -3 79 l5 87 3 -79 c2 -44 -1 -83 -5
-87z m547 146 c-7 -8 -19 -15 -26 -15 -8 0 -14 7 -14 15 0 10 10 15 26 15 22
0 25 -2 14 -15z m6493 8 c-7 -2 -19 -2 -25 0 -7 3 -2 5 12 5 14 0 19 -2 13 -5z
m-8833 -19 c0 -2 -7 -4 -15 -4 -8 0 -15 4 -15 10 0 5 7 7 15 4 8 -4 15 -8 15
-10z m2051 -74 c2 -74 2 -75 -25 -85 -21 -7 -29 -6 -36 5 -5 8 -6 16 -2 18 4
1 6 20 4 42 -4 38 -3 40 24 41 l29 2 -27 4 c-19 3 -28 10 -28 23 0 13 9 20 28
22 15 2 28 3 29 3 1 0 3 -34 4 -75z m-2474 48 c-3 -8 -6 -5 -6 6 -1 11 2 17 5
13 3 -3 4 -12 1 -19z m1193 18 c0 -3 -4 -8 -10 -11 -5 -3 -10 -1 -10 4 0 6 5
11 10 11 6 0 10 -2 10 -4z m-1378 -48 c-6 -6 -7 0 -4 19 5 21 7 23 10 9 2 -10
0 -22 -6 -28z m1244 5 c-4 -4 -11 -1 -16 7 -8 12 -10 12 -15 -2 -4 -9 -13 -14
-21 -11 -21 8 -17 23 6 23 11 0 20 5 20 12 0 8 6 6 17 -5 9 -9 13 -20 9 -24z
m1774 27 c0 -5 -13 -10 -30 -10 -16 0 -30 5 -30 10 0 6 14 10 30 10 17 0 30
-4 30 -10z m-2404 -15 c-11 -8 -16 -15 -11 -15 4 0 0 -9 -10 -20 -24 -26 -35
-25 -35 3 0 16 9 27 28 34 39 16 50 15 28 -2z m814 -6 c0 -5 -4 -9 -10 -9 -5
0 -10 7 -10 16 0 8 5 12 10 9 6 -3 10 -10 10 -16z m-1459 -8 c-11 -7 -10 -11
4 -19 12 -6 16 -16 12 -26 -9 -22 -23 -13 -29 18 -5 24 10 51 21 40 3 -3 -1
-9 -8 -13z m1484 9 c3 -5 1 -10 -4 -10 -6 0 -11 5 -11 10 0 6 2 10 4 10 3 0 8
-4 11 -10z m378 -14 c17 -15 35 -22 47 -19 14 4 20 0 20 -10 0 -22 -20 -32
-31 -16 -5 8 -9 11 -9 7 0 -3 -3 -13 -6 -22 -4 -10 -1 -16 9 -16 15 0 33 -47
23 -58 -3 -3 -14 2 -24 11 -10 10 -23 17 -29 17 -15 0 -45 -49 -53 -85 -4 -22
-12 -31 -30 -33 -14 -2 -36 -12 -50 -22 -20 -15 -22 -22 -13 -31 10 -10 17 -9
33 6 22 20 34 16 24 -9 -8 -21 -54 -33 -64 -16 -5 8 -13 9 -21 4 -7 -4 -27 -7
-43 -6 -42 4 -84 -16 -89 -41 -2 -13 -5 -6 -6 16 l-1 37 -79 0 c-50 0 -81 -4
-83 -11 -2 -6 -16 5 -31 25 -26 33 -27 36 -8 36 11 0 22 -4 25 -9 3 -5 49 -9
103 -10 53 -1 103 -7 109 -12 7 -6 28 -9 46 -7 24 2 33 8 32 21 -1 9 3 17 8
17 6 0 7 7 4 16 -7 18 19 48 34 39 5 -3 10 1 10 10 0 12 5 15 17 11 10 -4 23
1 35 14 19 20 16 42 -5 39 -27 -3 -36 2 -31 16 4 9 19 15 37 15 29 0 29 1 14
18 -26 28 -22 45 8 38 15 -4 25 -2 25 4 0 6 6 8 13 4 10 -6 10 -4 0 7 -14 15
-17 29 -5 29 4 0 20 -11 35 -24z m-1916 -18 c-3 -8 -6 -5 -6 6 -1 11 2 17 5
13 3 -3 4 -12 1 -19z m803 -25 c0 -22 -31 -40 -50 -28 -6 3 -7 -1 -4 -9 5 -12
0 -16 -20 -16 -14 0 -26 5 -26 10 0 14 -47 12 -54 -2 -3 -7 -5 -4 -3 7 3 24
68 70 77 55 4 -7 13 -3 24 9 15 16 21 18 37 8 10 -6 19 -22 19 -34z m627 32
c21 -21 14 -26 -30 -18 -22 3 -37 11 -37 19 0 19 48 18 67 -1z m1548 -5 c-3
-5 -10 -10 -16 -10 -5 0 -9 5 -9 10 0 6 7 10 16 10 8 0 12 -4 9 -10z m-2145
-19 c0 -6 -4 -13 -10 -16 -5 -3 -10 1 -10 9 0 9 5 16 10 16 6 0 10 -4 10 -9z
m528 -18 c3 -23 -12 -31 -23 -13 -9 15 -25 2 -18 -15 3 -10 -2 -15 -16 -15
-12 0 -21 -6 -21 -15 0 -8 7 -15 15 -15 8 0 15 -4 15 -10 0 -5 -7 -10 -15 -10
-8 0 -15 5 -15 10 0 6 -3 9 -7 9 -5 -1 -10 0 -13 1 -3 1 -30 3 -60 6 -41 3
-62 -1 -89 -17 -19 -11 -37 -16 -40 -12 -3 5 -17 8 -31 8 -14 -1 -28 0 -33 3
-4 2 -36 4 -72 6 -44 1 -70 7 -83 19 -10 9 -26 17 -35 17 -9 0 -17 5 -17 10 0
6 9 10 19 10 11 0 27 3 37 7 13 5 16 3 12 -9 -5 -12 3 -15 35 -16 23 -1 54 -4
70 -8 23 -5 27 -2 27 15 0 15 6 21 23 20 12 0 16 -3 10 -6 -7 -2 -13 -11 -13
-19 0 -22 108 -19 133 4 15 12 21 14 24 5 6 -17 73 -17 73 -1 0 7 12 23 27 36
35 29 77 27 81 -5z m162 -3 c0 -11 -7 -20 -15 -20 -8 0 -15 9 -15 20 0 11 7
20 15 20 8 0 15 -9 15 -20z m-280 -10 c0 -5 -4 -10 -9 -10 -6 0 -13 5 -16 10
-3 6 1 10 9 10 9 0 16 -4 16 -10z m-1122 -26 c-9 -9 -21 -13 -27 -10 -20 13
-11 26 16 26 25 0 26 -1 11 -16z m1242 -14 c0 -5 -7 -10 -15 -10 -8 0 -15 5
-15 10 0 6 7 10 15 10 8 0 15 -4 15 -10z m322 -15 c-2 -14 0 -25 6 -25 5 0 13
-7 16 -16 3 -8 2 -12 -3 -9 -5 3 -12 -3 -16 -14 -4 -13 -12 -17 -25 -14 -21 6
-28 23 -9 23 23 0 -4 20 -29 21 l-27 1 25 7 c14 4 26 13 26 21 1 8 2 18 3 23
0 4 9 7 20 7 14 0 17 -6 13 -25z m-1500 -33 c-6 -2 -8 -11 -5 -22 3 -11 11
-16 19 -13 8 3 14 -1 14 -11 0 -20 -14 -21 -30 -1 -11 13 -15 13 -22 3 -7 -9
-7 -4 -3 12 4 14 9 38 12 55 l6 29 9 -24 c6 -15 5 -26 0 -28z m2553 38 c3 -5
1 -10 -4 -10 -6 0 -11 5 -11 10 0 6 2 10 4 10 3 0 8 -4 11 -10z m211 -27 c1
-15 -1 -34 -6 -43 -7 -10 -9 0 -10 34 0 51 10 57 16 9z m-2797 8 c14 -25 1
-35 -15 -13 -16 20 -17 32 -4 32 5 0 14 -8 19 -19z m519 -1 c-12 -19 -28 -27
-28 -14 0 6 30 33 38 34 1 0 -3 -9 -10 -20z m2242 10 c0 -5 -4 -10 -10 -10 -5
0 -10 5 -10 10 0 6 5 10 10 10 6 0 10 -4 10 -10z m-1435 -20 c3 -5 -3 -10 -14
-10 -12 0 -21 5 -21 10 0 6 6 10 14 10 8 0 18 -4 21 -10z m470 -11 c5 -14 -1
-27 -19 -44 -14 -13 -26 -29 -26 -35 0 -5 -5 -10 -11 -10 -15 0 -3 61 14 72 6
4 13 12 13 18 2 18 4 20 13 20 5 0 13 -9 16 -21z m-588 5 c-3 -3 -12 -4 -19
-1 -8 3 -5 6 6 6 11 1 17 -2 13 -5z m196 -1 c-7 -2 -19 -2 -25 0 -7 3 -2 5 12
5 14 0 19 -2 13 -5z m1207 -7 c0 -11 -19 -15 -25 -6 -3 5 1 10 9 10 9 0 16 -2
16 -4z m120 -12 c0 -8 5 -12 10 -9 6 4 13 -7 16 -24 4 -17 10 -31 15 -31 5 0
6 -6 3 -14 -3 -8 -13 -12 -25 -9 -14 4 -19 14 -19 39 0 18 -4 36 -10 39 -5 3
-10 10 -10 16 0 5 5 9 10 9 6 0 10 -7 10 -16z m-2536 -40 c3 -8 -1 -25 -9 -37
-13 -21 -13 -24 5 -40 26 -22 25 -40 -4 -72 -24 -26 -49 -18 -27 8 13 16 8 50
-8 55 -8 3 -9 16 -5 40 10 56 35 80 48 46z m-100 -9 c-4 -8 -11 -15 -16 -15
-6 0 -5 6 2 15 7 8 14 15 16 15 2 0 1 -7 -2 -15z m9061 -5 c3 -5 26 -8 50 -6
50 4 55 -2 25 -29 -17 -15 -24 -16 -45 -7 -35 16 -35 -10 0 -28 19 -10 25 -21
25 -49 1 -35 1 -35 16 -16 15 19 16 18 11 -15 -4 -22 2 -57 16 -97 17 -50 25
-62 42 -60 18 2 20 -3 18 -43 -2 -35 -1 -41 8 -27 21 35 29 15 29 -75 0 -78 4
-99 22 -128 l21 -35 12 34 c15 46 40 56 30 12 -4 -21 -2 -37 6 -47 10 -12 10
-20 1 -34 -6 -11 -9 -33 -6 -50 4 -19 2 -30 -5 -30 -6 0 -11 9 -11 20 0 11 -4
20 -9 20 -6 0 -6 -12 0 -30 6 -16 17 -30 24 -30 7 0 15 -9 18 -20 4 -15 0 -20
-13 -20 -22 0 -69 61 -101 130 -6 14 -16 34 -22 45 -29 55 -37 74 -39 98 -1
14 -5 24 -9 21 -4 -2 -10 10 -14 28 -13 69 -27 134 -36 169 -5 20 -9 52 -9 70
0 38 -21 57 -57 54 -13 -1 -23 2 -23 6 0 4 -25 13 -55 20 -30 7 -55 17 -55 22
0 17 61 107 83 122 25 17 43 19 52 5z m-8875 -25 c-7 -8 -16 -15 -21 -15 -5 0
-9 7 -9 15 0 9 9 15 21 15 18 0 19 -2 9 -15z m513 8 c-13 -2 -33 -2 -45 0 -13
2 -3 4 22 4 25 0 35 -2 23 -4z m355 0 c-10 -2 -26 -2 -35 0 -10 3 -2 5 17 5
19 0 27 -2 18 -5z m1475 1 c9 -9 -4 -35 -14 -28 -5 3 -9 -2 -9 -10 0 -9 -7
-16 -15 -16 -15 0 -21 40 -8 53 8 9 38 9 46 1z m-2491 -25 c-15 -15 -62 -14
-62 1 0 6 16 10 35 8 19 -1 32 -5 27 -9z m946 -1 c-6 -18 -28 -21 -28 -4 0 9
7 16 16 16 9 0 14 -5 12 -12z m1572 -13 c0 -8 -4 -15 -10 -15 -5 0 -10 7 -10
15 0 8 5 15 10 15 6 0 10 -7 10 -15z m-2363 -31 c-3 -3 -12 -4 -19 -1 -8 3 -5
6 6 6 11 1 17 -2 13 -5z m924 -24 c1 14 5 0 10 -30 4 -33 4 -56 -2 -58 -5 -2
-9 -10 -9 -17 0 -8 -8 -19 -17 -24 -10 -6 -13 -11 -8 -11 11 0 15 -40 4 -40
-3 0 -11 12 -18 26 -11 26 -12 26 -26 8 -8 -11 -14 -14 -15 -6 0 6 -7 12 -15
12 -11 0 -15 12 -15 48 0 51 12 72 42 72 10 0 23 9 30 20 12 19 13 19 25 -3
l12 -22 2 25z m439 10 c0 -5 -4 -10 -10 -10 -5 0 -10 5 -10 10 0 6 5 10 10 10
6 0 10 -4 10 -10z m1101 -30 c5 0 9 10 10 23 1 17 3 15 8 -8 5 -25 6 -85 2
-177 -1 -21 -41 -25 -41 -4 0 7 -7 19 -15 26 -16 14 -16 60 0 72 6 5 5 8 -3 8
-7 0 -10 5 -7 10 3 6 2 10 -4 10 -6 0 -8 7 -5 15 4 8 12 15 20 15 8 0 15 11
15 28 2 23 2 24 6 5 2 -13 9 -23 14 -23z m56 -127 c-2 -32 -3 -6 -3 57 0 63 1
89 3 58 2 -32 2 -84 0 -115z m-2672 137 c3 -5 1 -10 -4 -10 -6 0 -11 5 -11 10
0 6 2 10 4 10 3 0 8 -4 11 -10z m1459 -25 c-8 -20 -30 -19 -38 1 -9 24 2 36
24 24 11 -6 17 -17 14 -25z m-544 -22 c0 -27 0 -27 -36 -8 -16 8 -23 15 -16
15 6 0 12 9 12 20 0 18 2 19 20 8 11 -7 20 -23 20 -35z m315 -1 c-3 -4 -10 0
-15 8 -6 9 -5 17 3 22 13 8 24 -19 12 -30z m145 13 c0 -14 -4 -25 -10 -25 -5
0 -7 -6 -5 -12 4 -10 -14 -12 -77 -10 -92 4 -133 21 -52 23 80 1 94 5 110 27
20 29 34 28 34 -3z m-1227 8 c-7 -2 -19 -2 -25 0 -7 3 -2 5 12 5 14 0 19 -2
13 -5z m327 -19 c0 -2 -12 -4 -26 -4 -14 0 -23 4 -20 9 6 8 46 4 46 -5z m-282
-27 c3 -12 -4 -17 -22 -17 -28 0 -33 9 -14 28 15 15 32 10 36 -11z m58 12 c7
-12 -15 -31 -28 -23 -9 6 1 34 12 34 5 0 12 -5 16 -11z m2218 2 c4 -5 -3 -7
-14 -4 -23 6 -26 13 -6 13 8 0 17 -4 20 -9z m66 3 c0 -9 -28 -34 -38 -34 -5 0
-9 7 -9 15 0 8 4 12 8 9 4 -2 10 0 14 6 7 11 25 14 25 4z m-2147 -13 c4 -1 7
-5 7 -11 0 -5 -17 -9 -37 -8 -43 1 -56 6 -48 18 4 6 38 7 78 1z m325 -13 c4
-21 -43 -29 -98 -17 -50 11 -92 9 -102 -6 -5 -6 -8 -5 -8 3 0 34 24 42 115 39
72 -2 90 -6 93 -19z m-218 -10 c0 -23 -3 -23 -25 1 -16 19 -16 20 4 18 13 -1
21 -8 21 -19z m1820 1 c0 -5 -9 -9 -20 -9 -11 0 -20 6 -20 14 0 9 7 12 20 9
11 -3 20 -9 20 -14z m-1460 -4 c0 -8 -4 -15 -10 -15 -5 0 -10 7 -10 15 0 8 5
15 10 15 6 0 10 -7 10 -15z m324 0 c3 -8 18 -15 33 -15 21 0 24 -3 14 -9 -11
-7 -4 -11 25 -14 39 -4 39 -4 -8 -5 -38 -2 -50 -7 -67 -29 -11 -16 -21 -22
-21 -15 0 10 -5 10 -20 2 -14 -8 -26 -8 -40 0 -32 17 -24 43 20 64 22 11 40
23 40 28 0 14 18 9 24 -7z m1064 -7 c2 -4 10 -8 18 -8 8 0 14 -7 14 -15 0 -10
-10 -15 -27 -15 -17 0 -23 3 -16 8 17 11 0 34 -20 26 -9 -3 -17 -10 -17 -14 0
-5 -9 -8 -19 -7 -11 0 -18 4 -17 7 2 3 6 13 9 22 5 14 13 16 39 11 18 -3 35
-10 36 -15z m-2103 2 c3 -5 -1 -10 -9 -10 -9 0 -16 5 -16 10 0 6 4 10 9 10 6
0 13 -4 16 -10z m85 -15 c0 -19 26 -20 33 -1 5 13 24 14 66 7 2 -1 -2 -8 -9
-16 -15 -18 -81 -20 -98 -3 -15 15 -16 28 -2 28 6 0 10 -7 10 -15z m2127 0 c0
-8 -6 -15 -14 -15 -17 0 -17 17 0 23 6 3 12 6 13 6 0 1 1 -6 1 -14z m80 -11
c-3 -3 -12 -4 -19 -1 -8 3 -5 6 6 6 11 1 17 -2 13 -5z m2880 -16 c-3 -8 -6 -5
-6 6 -1 11 2 17 5 13 3 -3 4 -12 1 -19z m-4916 -1 c-1 -4 -1 -14 -1 -22 0 -17
-26 -20 -35 -5 -8 13 14 42 27 38 5 -2 9 -7 9 -11z m3350 -14 c-10 -35 -4 -53
17 -53 15 -1 15 -2 -1 -11 -36 -21 -51 17 -32 79 9 26 23 11 16 -15z m-2464 1
c-3 -3 -12 -4 -19 -1 -8 3 -5 6 6 6 11 1 17 -2 13 -5z m-851 -50 c-3 -8 -11
-14 -18 -14 -10 0 -9 3 1 9 8 5 11 16 8 24 -3 8 -3 18 1 22 9 9 15 -22 8 -41z
m1844 34 c0 -5 5 -6 10 -3 6 3 10 1 10 -5 0 -7 -7 -9 -16 -6 -9 3 -27 6 -40 6
-14 0 -23 4 -20 9 7 11 56 11 56 -1z m240 -18 c0 -21 -15 -27 -25 -10 -4 6
-10 8 -15 5 -4 -3 -10 2 -14 10 -4 11 2 15 24 15 23 0 30 -4 30 -20z m-1680 0
c0 -6 6 -10 14 -10 8 0 16 -7 20 -15 3 -10 -1 -15 -13 -15 -11 0 -21 5 -23 11
-3 9 -17 9 -53 1 -28 -6 -99 -13 -160 -15 -60 -2 -91 -2 -67 0 34 3 42 8 42
24 0 18 5 20 40 15 22 -3 40 -1 40 4 0 5 36 9 80 9 44 0 80 -4 80 -9z m-320
-16 c0 -8 -5 -12 -10 -9 -6 4 -8 11 -5 16 9 14 15 11 15 -7z m63 -11 c-7 -2
-21 -2 -30 0 -10 3 -4 5 12 5 17 0 24 -2 18 -5z m404 -19 c-3 -3 -12 -4 -19
-1 -8 3 -5 6 6 6 11 1 17 -2 13 -5z m-409 -21 c-16 -2 -40 -2 -55 0 -16 2 -3
4 27 4 30 0 43 -2 28 -4z m245 0 c-13 -2 -33 -2 -45 0 -13 2 -3 4 22 4 25 0
35 -2 23 -4z m155 0 c-10 -2 -28 -2 -40 0 -13 2 -5 4 17 4 22 1 32 -1 23 -4z
m49 1 c-3 -3 -12 -4 -19 -1 -8 3 -5 6 6 6 11 1 17 -2 13 -5z m8236 -142 c-3
-12 -9 -19 -14 -16 -5 3 -3 14 3 24 15 24 19 21 11 -8z m-4050 -121 c4 -4 9
-122 10 -261 2 -197 -1 -256 -11 -266 -10 -11 -78 -13 -334 -9 -229 4 -325 2
-334 -6 -12 -9 -14 -151 -14 -815 0 -631 -3 -804 -12 -811 -21 -12 -602 -3
-610 10 -4 7 -8 371 -8 809 0 626 -3 799 -12 805 -7 4 -157 9 -332 10 -203 2
-324 7 -330 13 -11 11 -16 494 -5 520 6 13 124 15 995 12 544 -1 992 -6 997
-11z m1945 1 c22 -13 22 -14 22 -262 0 -188 -3 -251 -12 -257 -7 -4 -256 -9
-553 -9 l-540 -2 -3 -98 c-2 -55 0 -109 3 -122 l6 -23 307 2 307 2 164 -42
c91 -22 177 -41 192 -41 18 0 32 -7 39 -19 6 -12 10 -105 10 -231 0 -193 -2
-212 -17 -216 -10 -3 -241 -6 -513 -7 l-495 -2 0 -85 0 -85 350 -5 350 -5 120
-48 c66 -27 158 -62 205 -80 47 -17 88 -35 91 -40 12 -17 9 -486 -3 -493 -6
-4 -394 -9 -863 -12 l-853 -5 -20 24 c-21 24 -40 49 -137 171 -47 59 -50 68
-56 133 -3 38 -2 286 2 550 4 264 7 482 7 485 0 3 0 38 1 78 2 118 21 85 23
-40 2 -108 2 -110 8 -38 3 41 8 68 12 60 7 -15 25 -146 33 -235 3 -27 9 -51
15 -53 14 -5 13 -82 -1 -82 -6 0 0 -13 13 -29 13 -16 26 -26 30 -22 4 3 9 29
12 56 11 97 26 633 26 870 0 132 -1 245 0 252 0 6 8 13 17 15 9 2 390 3 847 3
659 0 836 -3 854 -13z m-7002 -4 c5 -7 9 -122 9 -256 0 -205 -2 -244 -15 -252
-9 -6 -176 -10 -400 -11 -212 -1 -450 -4 -530 -8 l-145 -6 -2 -140 c-2 -77 1
-145 5 -152 6 -9 129 -13 491 -15 265 -2 487 -5 492 -8 12 -8 17 -448 5 -460
-6 -6 -143 -10 -350 -10 -188 -1 -402 -5 -475 -10 -165 -10 -166 -11 -154
-120 8 -85 9 -125 0 -157 -4 -14 0 -23 10 -27 8 -3 252 -9 541 -12 290 -3 529
-7 531 -9 6 -7 0 -500 -7 -507 -4 -4 -392 -8 -862 -10 l-855 -3 -3 1087 c-2
1029 -1 1087 15 1090 10 3 394 5 854 7 681 2 837 0 845 -11z m910 0 c4 -7 7
-366 6 -798 -1 -432 0 -797 4 -812 l6 -28 508 0 c396 0 511 -3 517 -12 6 -10
6 -380 -1 -488 l-1 -25 -822 -3 c-779 -2 -823 -1 -823 15 -1 1670 0 2137 7
2144 9 9 101 13 400 17 142 2 194 -1 199 -10z m1923 -7 c13 -23 5 -2141 -8
-2154 -4 -4 -140 -6 -301 -5 l-294 3 -7 35 c-4 19 -8 501 -9 1071 0 883 2
1039 14 1051 11 12 69 15 304 17 284 2 291 2 301 -18z m6338 -83 c-3 -7 -5 -2
-5 12 0 14 2 19 5 13 2 -7 2 -19 0 -25z m38 -87 c10 -17 -12 -21 -25 -6 -10
12 -10 15 3 15 9 0 18 -4 22 -9z m-4626 -2120 c12 -19 1 -164 -13 -173 -28
-20 -41 -3 -41 53 0 62 -15 89 -51 89 -12 0 -25 4 -28 9 -3 5 -25 6 -50 4 -24
-3 -52 -1 -62 5 -18 10 -18 11 3 19 12 4 70 8 128 8 80 0 108 -3 114 -14z
m-2979 -126 c39 -20 59 -42 60 -66 0 -13 -122 -149 -135 -149 -2 0 -20 14 -40
32 -34 29 -41 31 -119 32 l-82 1 -75 -57 c-115 -88 -143 -118 -158 -168 -7
-25 -29 -78 -48 -117 -19 -40 -32 -77 -28 -83 8 -12 35 -13 35 -1 0 4 11 20
25 35 22 24 29 26 97 24 67 -3 79 0 149 35 41 20 83 37 93 37 18 0 86 -63 86
-80 0 -6 7 -10 15 -10 23 0 18 -38 -10 -65 -31 -32 -55 -32 -55 -1 0 36 -15
40 -39 11 -19 -25 -22 -26 -60 -14 -38 11 -46 10 -138 -31 -54 -24 -107 -49
-118 -56 -11 -7 -49 -19 -84 -28 -134 -34 -164 -68 -98 -113 43 -30 62 -29
133 6 32 16 99 42 147 57 48 15 90 31 93 36 9 13 64 9 70 -6 3 -8 26 -25 50
-37 42 -22 45 -26 39 -54 -3 -16 -10 -31 -15 -33 -6 -2 -10 -10 -10 -18 0 -8
-5 -14 -11 -14 -5 0 -8 -4 -5 -8 9 -15 -37 -11 -52 5 -27 27 -123 10 -284 -49
-16 -6 -28 -16 -28 -23 0 -7 -7 -18 -16 -26 -13 -10 -17 -10 -24 0 -11 19 -60
6 -93 -25 -15 -14 -27 -27 -27 -29 0 -3 12 -28 28 -56 40 -75 81 -94 189 -85
52 4 100 14 126 27 46 22 188 151 207 187 9 20 16 22 48 16 51 -8 112 -49 112
-74 0 -11 -6 -20 -13 -20 -7 0 -21 -15 -32 -32 -27 -47 -83 -97 -133 -119 -23
-10 -55 -30 -70 -44 -15 -14 -35 -28 -44 -31 -10 -3 -18 -9 -18 -13 0 -4 -26
-20 -57 -35 -32 -16 -69 -34 -83 -41 -14 -7 -62 -18 -107 -24 -75 -11 -86 -10
-126 8 -43 19 -107 81 -107 102 0 5 -9 20 -20 31 -27 30 -65 109 -62 130 4 22
-38 34 -66 19 -32 -17 -42 -13 -42 17 0 35 33 88 59 97 23 7 51 53 51 82 0 9
-12 27 -27 39 l-28 23 29 55 c16 31 34 56 41 56 18 0 43 31 50 65 4 17 19 55
33 85 14 30 30 66 36 80 11 26 22 41 69 95 15 18 27 36 27 40 0 3 29 43 66 88
77 97 203 202 259 218 22 6 59 22 83 35 24 14 60 32 80 40 49 18 156 13 202
-11z m2517 -297 c-3 -7 -5 -2 -5 12 0 14 2 19 5 13 2 -7 2 -19 0 -25z m488
-60 c14 -29 25 -65 25 -80 0 -59 -83 -59 -95 -1 -4 15 -10 36 -16 45 -15 28
-11 66 9 77 36 21 52 12 77 -41z m-497 -157 c20 -27 20 -30 4 -44 -33 -30 -64
10 -46 57 9 23 17 20 42 -13z m607 -94 c31 -66 31 -73 1 -92 -32 -21 -47 -12
-75 45 l-25 50 24 25 c13 14 29 25 36 25 8 0 25 -24 39 -53z m370 -97 c44 -11
88 -20 97 -20 27 0 40 -33 22 -58 -17 -25 -71 -30 -107 -10 -12 6 -44 17 -72
23 -40 9 -51 16 -53 34 -3 21 13 51 27 51 3 0 42 -9 86 -20z m-875 -30 c24
-34 21 -60 -7 -60 -23 0 -35 9 -55 39 -37 53 25 73 62 21z m249 -184 c41 -7
120 -56 121 -75 0 -29 -161 18 -204 59 -14 14 4 30 27 26 12 -3 37 -7 56 -10z
m-5894 -331 c77 -19 155 -35 173 -35 17 0 32 -4 32 -9 0 -24 -96 -224 -138
-285 -26 -39 -53 -82 -60 -96 -13 -25 -63 -60 -85 -60 -7 0 -24 -24 -40 -53
-16 -30 -41 -61 -59 -71 l-31 -19 7 27 c8 33 -14 35 -44 4 -11 -12 -20 -16
-20 -10 0 7 9 20 20 29 25 22 25 28 -1 54 -17 17 -23 19 -30 8 -6 -9 -7 2 -3
29 6 41 6 42 -22 43 -16 1 -32 1 -36 0 -5 0 -8 6 -8 14 0 8 5 15 12 15 6 0 9
2 6 5 -10 10 -38 -7 -38 -24 0 -26 15 -42 44 -45 14 -1 27 -7 27 -12 1 -13
-64 -4 -73 10 -4 6 -8 21 -8 33 0 20 -4 22 -30 17 -24 -5 -30 -3 -30 10 0 15
-3 15 -27 -2 -16 -11 -45 -30 -65 -43 -21 -13 -38 -27 -38 -31 0 -5 -5 -8 -11
-8 -6 0 -25 -11 -42 -23 -125 -92 -357 -156 -522 -144 -89 7 -223 42 -302 79
-72 34 -86 47 -72 64 6 8 16 14 21 14 6 0 30 13 54 29 l43 30 -10 -25 c-5 -14
-9 -31 -9 -38 0 -19 130 -53 229 -61 47 -4 109 -16 139 -27 59 -22 124 -19
158 7 11 8 34 15 52 15 55 0 274 111 320 162 131 145 238 313 263 414 7 27 16
52 21 55 12 8 58 -1 233 -46z m-905 -155 c0 -5 -2 -10 -4 -10 -2 0 -12 -3 -20
-6 -12 -5 -15 -2 -10 10 7 17 34 22 34 6z m8758 -116 c-3 -35 -28 -55 -28 -22
0 20 16 48 27 48 1 0 2 -12 1 -26z m-9208 -30 c0 -8 -5 -12 -10 -9 -6 4 -8 11
-5 16 9 14 15 11 15 -7z m9220 -65 c0 -5 -7 -9 -15 -9 -15 0 -20 12 -9 23 8 8
24 -1 24 -14z m117 -25 c-3 -3 -12 -4 -19 -1 -8 3 -5 6 6 6 11 1 17 -2 13 -5z
m350 -96 c-3 -8 -6 -5 -6 6 -1 11 2 17 5 13 3 -3 4 -12 1 -19z m-10348 -61
c13 -17 4 -25 -87 -86 -59 -40 -87 -45 -80 -16 3 16 127 114 144 114 6 1 17
-5 23 -12z m1761 -7 c0 -5 -4 -10 -10 -10 -5 0 -10 5 -10 10 0 6 5 10 10 10 6
0 10 -4 10 -10z m28 -90 c-15 -23 -28 -26 -28 -7 0 17 10 27 27 27 11 0 11 -4
1 -20z m9269 -196 c-3 -3 -12 -4 -19 -1 -8 3 -5 6 6 6 11 1 17 -2 13 -5z
m-9999 -161 c-21 -2 -57 -2 -80 0 -24 2 -7 4 37 4 44 0 63 -2 43 -4z m9492 3
c0 -3 -4 -8 -10 -11 -5 -3 -10 -1 -10 4 0 6 5 11 10 11 6 0 10 -2 10 -4z
m-9013 -1733 c-3 -10 -5 -4 -5 12 0 17 2 24 5 18 2 -7 2 -21 0 -30z"/>
<path d="M3992 11467 c-28 -30 -29 -67 -3 -67 11 0 23 5 26 10 4 6 11 8 16 4
5 -3 8 -2 7 3 -2 4 1 9 6 10 19 3 23 26 8 44 -21 25 -34 24 -60 -4z"/>
<path d="M3746 11121 c-4 -7 -5 -15 -2 -18 9 -9 19 4 14 18 -4 11 -6 11 -12 0z"/>
<path d="M1640 10870 c0 -5 7 -10 16 -10 8 0 12 5 9 10 -3 6 -10 10 -16 10 -5
0 -9 -4 -9 -10z"/>
<path d="M6768 10693 c-20 -5 -23 -18 -8 -28 12 -7 40 12 40 26 0 9 -4 10 -32
2z"/>
<path d="M6764 10606 c-8 -20 -6 -21 24 -30 27 -9 29 5 2 29 -18 16 -20 16
-26 1z"/>
<path d="M6888 10573 c7 -3 16 -2 19 1 4 3 -2 6 -13 5 -11 0 -14 -3 -6 -6z"/>
<path d="M6842 10511 c-11 -7 -11 -9 2 -14 10 -4 16 -1 16 8 0 17 -1 17 -18 6z"/>
<path d="M5893 10494 c-3 -8 -1 -20 6 -27 8 -8 11 -4 11 16 0 30 -7 35 -17 11z"/>
<path d="M6084 10414 c3 -9 6 -18 6 -20 0 -2 9 -4 20 -4 24 0 25 6 6 26 -20
19 -40 18 -32 -2z"/>
<path d="M6640 10426 c0 -2 9 -6 20 -9 11 -3 20 -1 20 4 0 5 -9 9 -20 9 -11 0
-20 -2 -20 -4z"/>
<path d="M5797 10407 c-12 -31 -8 -39 16 -35 15 2 23 10 24 28 1 14 0 18 -3 8
-3 -10 -9 -18 -14 -18 -5 0 -10 8 -12 18 -3 16 -4 16 -11 -1z"/>
<path d="M6348 10403 c6 -2 18 -2 25 0 6 3 1 5 -13 5 -14 0 -19 -2 -12 -5z"/>
<path d="M6528 10363 c7 -3 16 -2 19 1 4 3 -2 6 -13 5 -11 0 -14 -3 -6 -6z"/>
<path d="M6160 10350 c0 -5 4 -10 9 -10 6 0 13 5 16 10 3 6 -1 10 -9 10 -9 0
-16 -4 -16 -10z"/>
<path d="M6423 10345 c0 -8 4 -15 9 -15 4 0 8 4 8 9 0 6 -4 12 -8 15 -5 3 -9
-1 -9 -9z"/>
<path d="M5750 10336 c0 -9 7 -16 16 -16 17 0 14 22 -4 28 -7 2 -12 -3 -12
-12z"/>
<path d="M5731 10324 c0 -11 3 -14 6 -6 3 7 2 16 -1 19 -3 4 -6 -2 -5 -13z"/>
<path d="M8855 9350 c3 -5 11 -10 16 -10 6 0 7 5 4 10 -3 6 -11 10 -16 10 -6
0 -7 -4 -4 -10z"/>
<path d="M5778 8873 c12 -2 30 -2 40 0 9 3 -1 5 -23 4 -22 0 -30 -2 -17 -4z"/>
<path d="M5978 8853 c7 -3 16 -2 19 1 4 3 -2 6 -13 5 -11 0 -14 -3 -6 -6z"/>
<path d="M6140 8850 c8 -5 24 -9 35 -9 l20 0 -20 9 c-11 5 -27 9 -35 9 -13 1
-13 0 0 -9z"/>
<path d="M6290 8850 c-23 -6 6 -8 81 -7 65 1 115 5 112 10 -5 9 -147 7 -193
-3z"/>
<path d="M6730 8805 c-6 -8 -10 -22 -7 -32 4 -14 5 -13 6 5 1 18 7 22 39 23
30 0 33 2 17 9 -29 13 -41 12 -55 -5z"/>
<path d="M5550 8631 c0 -94 3 -172 8 -175 4 -2 6 14 4 36 -3 26 0 43 8 48 11
7 11 26 3 97 -6 48 -10 105 -8 126 1 20 -2 37 -6 37 -5 0 -9 -76 -9 -169z"/>
<path d="M6776 8734 c-3 -8 0 -11 10 -7 9 3 14 0 12 -8 -2 -10 9 -15 37 -17
35 -2 37 -1 20 10 -11 6 -23 16 -27 22 -10 16 -46 16 -52 0z"/>
<path d="M7097 8703 c-11 -10 -8 -23 4 -23 14 0 39 -26 39 -40 0 -6 4 -9 10
-5 6 3 5 16 -3 33 -16 37 -35 50 -50 35z"/>
<path d="M6160 8650 c0 -6 33 -10 80 -10 47 0 80 4 80 10 0 6 -33 10 -80 10
-47 0 -80 -4 -80 -10z"/>
<path d="M6665 8640 c-3 -6 1 -7 9 -4 18 7 21 14 7 14 -6 0 -13 -4 -16 -10z"/>
<path d="M5868 8612 c-16 -2 -28 -9 -28 -17 0 -7 -5 -15 -12 -17 -8 -3 -8 -9
0 -24 6 -10 12 -13 12 -6 0 9 31 12 120 12 100 0 120 3 120 15 0 12 -16 15
-80 15 -44 0 -80 4 -80 9 0 12 -20 17 -52 13z"/>
<path d="M7215 8570 c3 -5 10 -10 16 -10 5 0 9 5 9 10 0 6 -7 10 -16 10 -8 0
-12 -4 -9 -10z"/>
<path d="M5965 8540 c28 -5 66 -8 85 -8 28 1 25 2 -15 8 -27 5 -66 8 -85 8
-28 -1 -25 -2 15 -8z"/>
<path d="M6139 8531 l-24 -20 23 -23 c12 -12 22 -17 22 -10 0 7 8 12 18 13 9
0 27 13 40 30 l24 29 -40 0 c-25 0 -49 -7 -63 -19z"/>
<path d="M7288 8453 c-2 -10 -1 -29 3 -43 6 -20 7 -17 8 18 1 44 -4 54 -11 25z"/>
<path d="M5800 8420 c0 -22 5 -40 10 -40 6 0 10 18 10 40 0 22 -4 40 -10 40
-5 0 -10 -18 -10 -40z"/>
<path d="M6675 8450 c-3 -6 1 -7 9 -4 18 7 21 14 7 14 -6 0 -13 -4 -16 -10z"/>
<path d="M7141 8404 c0 -11 3 -14 6 -6 3 7 2 16 -1 19 -3 4 -6 -2 -5 -13z"/>
<path d="M7305 8380 c-4 -17 -5 -34 -2 -36 2 -3 7 10 11 27 3 18 4 34 2 36 -2
3 -7 -10 -11 -27z"/>
<path d="M5588 8340 c-2 -22 0 -47 4 -57 4 -10 7 6 7 40 1 66 -5 76 -11 17z"/>
<path d="M6696 8361 c-4 -5 -2 -12 3 -15 5 -4 12 -2 15 3 4 5 2 12 -3 15 -5 4
-12 2 -15 -3z"/>
<path d="M5757 8311 c-3 -14 -1 -18 9 -14 16 6 18 19 5 27 -5 3 -11 -3 -14
-13z"/>
<path d="M6720 8295 c0 -14 4 -25 9 -25 4 0 6 11 3 25 -2 14 -6 25 -8 25 -2 0
-4 -11 -4 -25z"/>
<path d="M7147 8263 c-13 -12 -7 -43 8 -43 8 0 15 6 15 13 0 18 -15 38 -23 30z"/>
<path d="M5814 8224 c11 -27 -4 -86 -20 -80 -11 4 -14 -11 -14 -79 0 -69 3
-85 15 -85 12 0 15 15 15 79 0 44 4 82 9 85 16 10 18 85 3 91 -10 4 -12 0 -8
-11z"/>
<path d="M7277 8223 c-2 -5 -5 -44 -5 -88 -1 -54 2 -75 8 -64 5 9 8 41 6 70
-2 30 0 62 5 71 9 17 -5 27 -14 11z"/>
<path d="M5538 8168 c-2 -29 0 -54 4 -56 4 -2 4 -11 1 -20 -3 -9 -2 -14 2 -9
10 9 13 137 3 137 -3 0 -8 -24 -10 -52z"/>
<path d="M5980 8181 c0 -44 5 -48 61 -43 33 4 39 7 39 28 0 21 -4 24 -40 24
-29 0 -40 4 -40 15 0 8 -4 15 -10 15 -5 0 -10 -18 -10 -39z"/>
<path d="M7331 8140 c0 -30 3 -48 6 -40 3 8 9 22 13 30 5 9 2 26 -6 40 -13 24
-13 22 -13 -30z"/>
<path d="M7140 8023 c0 -24 5 -43 10 -43 13 0 13 50 0 70 -7 11 -10 4 -10 -27z"/>
<path d="M7273 8035 c-7 -8 -9 -16 -4 -19 5 -3 12 1 15 10 8 22 4 25 -11 9z"/>
<path d="M5540 8009 c0 -5 -4 -7 -10 -4 -5 3 -10 0 -10 -8 0 -16 24 -30 34
-20 10 10 7 43 -4 43 -5 0 -10 -5 -10 -11z"/>
<path d="M6695 7950 c-3 -5 -1 -10 4 -10 6 0 11 5 11 10 0 6 -2 10 -4 10 -3 0
-8 -4 -11 -10z"/>
<path d="M6755 7950 c-4 -6 -3 -16 3 -22 13 -13 23 4 13 21 -7 10 -10 10 -16
1z"/>
<path d="M7259 7938 c-6 -21 -5 -38 2 -38 5 0 9 9 9 20 0 16 -7 28 -11 18z"/>
<path d="M7285 7920 c-3 -5 -1 -10 4 -10 6 0 11 5 11 10 0 6 -2 10 -4 10 -3 0
-8 -4 -11 -10z"/>
<path d="M6070 7894 c0 -14 14 -29 30 -32 8 -2 17 -8 19 -13 4 -12 30 21 31
39 0 7 -13 12 -31 12 -21 0 -28 -4 -23 -12 5 -9 2 -9 -9 1 -9 7 -17 10 -17 5z"/>
<path d="M7110 7856 c0 -30 16 -43 22 -18 3 10 -1 23 -9 30 -11 11 -13 8 -13
-12z"/>
<path d="M6200 7846 c0 -2 7 -6 15 -10 8 -3 15 -1 15 4 0 6 -7 10 -15 10 -8 0
-15 -2 -15 -4z"/>
<path d="M6274 7841 c6 -8 65 -5 74 4 3 3 -14 5 -37 5 -23 0 -40 -4 -37 -9z"/>
<path d="M6389 7823 c-25 -6 -41 -83 -18 -83 6 0 9 9 6 20 -5 19 -2 20 29 14
32 -6 38 -1 36 26 0 3 8 7 19 7 10 1 19 -5 19 -13 0 -8 5 -14 10 -14 6 0 10
-5 10 -11 0 -6 -9 -8 -22 -3 -20 6 -21 5 -6 -10 21 -21 60 -22 52 -1 -4 9 0
15 9 15 10 0 13 -7 10 -20 -3 -11 0 -20 6 -20 6 0 10 3 10 8 -3 20 3 30 21 35
29 8 24 25 -5 19 -14 -2 -45 2 -68 11 -49 18 -95 25 -118 20z"/>
<path d="M6190 7811 c0 -9 48 -21 79 -21 25 1 -30 29 -56 30 -13 0 -23 -4 -23
-9z"/>
<path d="M6760 7796 c-22 -13 -16 -14 60 -12 118 4 118 4 100 16 -22 14 -131
11 -160 -4z"/>
<path d="M6960 7781 c0 -14 -10 -21 -35 -25 -33 -7 -34 -7 -17 -26 22 -26 30
-25 44 5 6 14 18 25 27 25 9 0 23 5 31 10 13 9 13 11 0 20 -25 16 -50 12 -50
-9z"/>
<path d="M5551 7692 c1 -45 5 -85 10 -88 9 -5 1 155 -7 165 -3 3 -4 -32 -3
-77z"/>
<path d="M6629 7752 c-12 -12 -14 -23 -8 -40 5 -13 13 -21 18 -17 5 3 12 1 16
-5 8 -12 65 -13 65 -1 0 5 -13 21 -30 34 -16 14 -30 30 -30 36 0 15 -12 13
-31 -7z"/>
<path d="M6716 7757 c3 -10 9 -15 12 -12 3 3 0 11 -7 18 -10 9 -11 8 -5 -6z"/>
<path d="M6400 7750 c0 -5 7 -10 15 -10 8 0 15 5 15 10 0 6 -7 10 -15 10 -8 0
-15 -4 -15 -10z"/>
<path d="M6140 7734 c0 -8 -4 -12 -10 -9 -5 3 -10 1 -10 -5 0 -6 -4 -8 -10 -5
-5 3 -10 0 -10 -8 0 -15 20 -27 46 -27 8 0 14 9 14 19 0 11 5 23 11 27 8 4 7
9 -2 15 -21 13 -29 11 -29 -7z"/>
<path d="M7192 7741 c-11 -7 -11 -9 2 -14 10 -4 16 -1 16 8 0 17 -1 17 -18 6z"/>
<path d="M6465 7719 c-12 -19 5 -23 22 -6 16 16 16 17 1 17 -9 0 -20 -5 -23
-11z"/>
<path d="M6560 7690 c0 -5 5 -10 10 -10 6 0 10 5 10 10 0 6 -4 10 -10 10 -5 0
-10 -4 -10 -10z"/>
<path d="M6626 7650 c-44 -12 -53 -18 -46 -30 6 -10 30 -14 89 -14 75 -1 86
-5 82 -29 -1 -5 2 -6 6 -4 5 3 17 -1 28 -9 16 -12 17 -16 6 -23 -8 -5 -9 -11
-3 -15 6 -3 12 -1 14 6 3 8 12 2 22 -15 10 -15 26 -27 35 -26 12 0 12 2 -4 9
-20 9 -20 9 0 15 28 8 46 38 34 56 -7 11 -9 11 -9 -3 0 -11 -5 -15 -15 -12 -9
4 -13 13 -10 24 3 9 -1 23 -9 29 -12 10 -16 8 -21 -8 -4 -14 -15 -21 -33 -21
-20 0 -23 3 -14 12 8 8 7 18 -5 39 -20 34 -69 41 -147 19z"/>
<path d="M5595 7640 c-7 -22 -3 -151 5 -143 4 4 8 163 3 163 -1 0 -4 -9 -8
-20z"/>
<path d="M6081 7594 c0 -11 3 -14 6 -6 3 7 2 16 -1 19 -3 4 -6 -2 -5 -13z"/>
<path d="M6927 7583 c-14 -13 -6 -33 13 -33 13 0 20 7 20 20 0 19 -20 27 -33
13z"/>
<path d="M6880 7494 c0 -8 5 -12 10 -9 6 4 8 11 5 16 -9 14 -15 11 -15 -7z"/>
<path d="M5780 7420 c0 -64 3 -80 15 -80 12 0 15 16 15 80 0 64 -3 80 -15 80
-12 0 -15 -16 -15 -80z"/>
<path d="M5620 7110 c0 -5 5 -10 11 -10 5 0 7 5 4 10 -3 6 -8 10 -11 10 -2 0
-4 -4 -4 -10z"/>
<path d="M8915 8300 c3 -5 8 -10 11 -10 2 0 4 5 4 10 0 6 -5 10 -11 10 -5 0
-7 -4 -4 -10z"/>
<path d="M8942 8209 c2 -6 8 -10 13 -10 5 0 11 4 13 10 2 6 -4 11 -13 11 -9 0
-15 -5 -13 -11z"/>
<path d="M8316 8170 c-10 -10 -15 -23 -12 -29 6 -9 -31 -136 -55 -186 -5 -11
-16 -40 -24 -65 -9 -24 -20 -47 -26 -50 -5 -4 -12 -23 -14 -44 -3 -20 -14 -57
-25 -81 -27 -59 -26 -89 4 -108 13 -9 26 -13 29 -10 3 3 76 7 163 9 86 3 165
9 175 15 13 6 19 21 19 44 0 18 -3 35 -8 37 -9 4 -52 128 -52 151 0 10 -4 15
-10 12 -6 -4 -10 5 -10 19 0 14 -4 26 -10 26 -5 0 -10 16 -10 36 0 19 -3 33
-7 31 -5 -3 -9 7 -10 23 -1 15 -11 43 -22 63 -11 19 -22 48 -24 63 -11 67 -34
81 -71 44z"/>
<path d="M7585 7830 c-3 -5 -1 -10 4 -10 6 0 11 5 11 10 0 6 -2 10 -4 10 -3 0
-8 -4 -11 -10z"/>
<path d="M7501 7571 c-1 -27 2 -32 11 -23 8 8 8 17 0 34 -10 22 -11 21 -11
-11z"/>
<path d="M8198 7573 c7 -3 16 -2 19 1 4 3 -2 6 -13 5 -11 0 -14 -3 -6 -6z"/>
<path d="M7342 7130 c0 -14 2 -19 5 -12 2 6 2 18 0 25 -3 6 -5 1 -5 -13z"/>
<path d="M8253 7103 c9 -2 23 -2 30 0 6 3 -1 5 -18 5 -16 0 -22 -2 -12 -5z"/>
<path d="M7282 7065 c0 -16 2 -22 5 -12 2 9 2 23 0 30 -3 6 -5 -1 -5 -18z"/>
<path d="M7881 7004 c0 -11 3 -14 6 -6 3 7 2 16 -1 19 -3 4 -6 -2 -5 -13z"/>
<path d="M1928 8303 c7 -3 16 -2 19 1 4 3 -2 6 -13 5 -11 0 -14 -3 -6 -6z"/>
<path d="M4928 7493 c7 -3 16 -2 19 1 4 3 -2 6 -13 5 -11 0 -14 -3 -6 -6z"/>
<path d="M5053 7333 c-14 -5 -18 -33 -5 -33 4 0 18 9 32 20 23 18 23 20 5 19
-11 0 -26 -3 -32 -6z"/>
<path d="M3950 7374 c0 -9 7 -14 17 -12 25 5 28 28 4 28 -12 0 -21 -6 -21 -16z"/>
<path d="M12627 6841 c-2 -10 -1 -25 4 -32 6 -10 9 -4 9 19 0 36 -5 42 -13 13z"/>
<path d="M4033 6993 c9 -2 25 -2 35 0 9 3 1 5 -18 5 -19 0 -27 -2 -17 -5z"/>
<path d="M8882 5315 c0 -16 2 -22 5 -12 2 9 2 23 0 30 -3 6 -5 -1 -5 -18z"/>
<path d="M5070 3546 c0 -9 5 -16 10 -16 6 0 10 4 10 9 0 6 -4 13 -10 16 -5 3
-10 -1 -10 -9z"/>
<path d="M4948 3329 c-19 -11 -26 -69 -8 -69 14 0 32 38 28 60 -2 15 -7 17
-20 9z"/>
<path d="M1841 2494 c0 -11 3 -14 6 -6 3 7 2 16 -1 19 -3 4 -6 -2 -5 -13z"/>
<path d="M9470 12764 c34 -10 70 -13 95 -9 120 19 118 23 -15 23 l-135 1 55
-15z"/>
<path d="M10071 12711 c-8 -6 -9 -11 -3 -15 6 -3 14 -1 17 5 9 14 2 20 -14 10z"/>
<path d="M1310 12399 c0 -5 5 -7 10 -4 6 3 10 8 10 11 0 2 -4 4 -10 4 -5 0
-10 -5 -10 -11z"/>
<path d="M1 12384 c0 -11 3 -14 6 -6 3 7 2 16 -1 19 -3 4 -6 -2 -5 -13z"/>
<path d="M45 12190 c3 -5 13 -10 21 -10 8 0 12 5 9 10 -3 6 -13 10 -21 10 -8
0 -12 -4 -9 -10z"/>
<path d="M535 12001 c-3 -5 -1 -12 5 -16 5 -3 10 1 10 9 0 18 -6 21 -15 7z"/>
<path d="M12887 7193 c-11 -10 -8 -43 3 -43 6 0 10 11 10 25 0 26 -2 29 -13
18z"/>
<path d="M12863 7114 c-3 -9 0 -20 8 -25 23 -14 29 -11 29 16 0 28 -27 35 -37
9z"/>
<path d="M10873 3492 c-59 -58 -108 -120 -100 -128 9 -9 61 36 88 76 13 19 36
46 51 59 28 24 36 41 19 41 -5 0 -31 -22 -58 -48z"/>
<path d="M311 3474 c0 -11 3 -14 6 -6 3 7 2 16 -1 19 -3 4 -6 -2 -5 -13z"/>
<path d="M12853 2611 c-18 -16 -65 -41 -105 -56 -105 -40 -188 -83 -188 -98 0
-16 226 -170 291 -199 16 -7 29 -16 29 -20 0 -5 5 -8 10 -8 6 0 10 75 10 205
0 113 -3 205 -8 205 -4 0 -22 -13 -39 -29z"/>
<path d="M10645 2460 c-8 -13 -9 -12 26 -27 17 -7 31 -8 43 -1 9 5 46 8 82 5
35 -2 62 -1 58 2 -3 3 -40 9 -82 12 -42 4 -87 10 -98 14 -13 4 -25 2 -29 -5z"/>
<path d="M12340 2265 c0 -9 -7 -18 -15 -21 -8 -4 -15 -15 -15 -25 0 -11 -9
-37 -20 -59 -11 -22 -20 -45 -20 -52 0 -7 69 -59 153 -114 83 -56 178 -118
210 -140 32 -21 66 -44 75 -49 9 -6 37 -25 62 -44 42 -31 112 -71 125 -71 3 0
5 56 5 125 0 81 -4 125 -11 125 -10 0 -46 22 -320 203 -178 117 -229 144 -229
122z"/>
<path d="M10800 1846 c0 -9 6 -16 14 -16 8 0 16 -7 20 -15 3 -8 10 -15 16 -15
19 0 10 19 -20 40 -25 18 -30 19 -30 6z"/>
<path d="M12180 1807 c0 -98 21 -212 46 -249 13 -21 24 -51 24 -67 0 -61 77
-192 155 -266 137 -130 246 -181 448 -210 l47 -7 0 216 c0 119 -3 216 -6 216
-3 0 -15 -11 -26 -25 -26 -33 -41 -32 -71 8 -14 19 -56 55 -94 81 -68 47 -115
80 -228 161 -33 23 -76 51 -95 61 -19 11 -70 43 -113 72 -43 28 -80 52 -83 52
-2 0 -4 -19 -4 -43z m192 -203 c3 -29 1 -38 -14 -42 -10 -2 -18 -8 -18 -12 0
-15 -59 -17 -65 -2 -10 27 -5 42 14 42 11 0 23 5 26 10 8 13 25 13 25 -1 0 -5
-4 -7 -10 -4 -5 3 -10 0 -10 -8 0 -7 7 -14 15 -14 10 0 15 11 15 34 0 45 17
42 22 -3z"/>
<path d="M1837 321 c-3 -12 1 -22 11 -26 20 -7 22 -4 15 23 -7 27 -19 28 -26
3z"/>
<path d="M1860 191 c0 -6 5 -13 10 -16 6 -3 10 1 10 9 0 9 -4 16 -10 16 -5 0
-10 -4 -10 -9z"/>
<path d="M2308 3 c7 -3 16 -2 19 1 4 3 -2 6 -13 5 -11 0 -14 -3 -6 -6z"/>
</g>
</svg>
